<svg width="330" height="130" viewBox="0 0 330 130" fill="none" xmlns="http://www.w3.org/2000/svg">
<path d="M0 86.9784H330V115C330 123.284 323.284 130 315 130H15C6.71573 130 0 123.284 0 115V86.9784Z" fill="#FFCC00"/>
<rect y="43.0216" width="330" height="43.9568" fill="#DD0000"/>
<path d="M0 15C0 6.71572 6.71573 0 15 0H315C323.284 0 330 6.71573 330 15V43.0216H0V15Z" fill="black"/>
<rect x="1" y="1" width="328" height="128" rx="14" stroke="#203C3C" stroke-width="2"/>
<path d="M122.523 23.7368V28.6648C122.203 29.0701 121.733 29.4968 121.115 29.9448C120.517 30.3715 119.803 30.7661 118.971 31.1288C118.16 31.4701 117.253 31.7581 116.251 31.9928C115.269 32.2061 114.235 32.3128 113.147 32.3128C111.376 32.3128 109.765 32.0355 108.315 31.4808C106.885 30.9261 105.648 30.1368 104.603 29.1128C103.557 28.0888 102.747 26.8621 102.171 25.4328C101.616 24.0035 101.339 22.4035 101.339 20.6328C101.339 18.9261 101.627 17.3581 102.203 15.9288C102.8 14.4995 103.621 13.2621 104.667 12.2168C105.712 11.1715 106.928 10.3715 108.315 9.8168C109.723 9.2408 111.237 8.9528 112.859 8.9528C114.395 8.9528 115.675 9.2088 116.699 9.7208C117.723 10.2328 118.544 10.9368 119.163 11.8328C119.803 12.7288 120.304 13.7528 120.667 14.9048L118.971 14.5848L119.579 9.2728H122.107V16.4088H119.195C118.896 15.4488 118.501 14.6061 118.011 13.8808C117.52 13.1341 116.912 12.5581 116.187 12.1528C115.483 11.7475 114.619 11.5448 113.595 11.5448C112.699 11.5448 111.888 11.7581 111.163 12.1848C110.459 12.6115 109.851 13.2195 109.339 14.0088C108.848 14.7981 108.464 15.7581 108.187 16.8888C107.931 17.9981 107.803 19.2461 107.803 20.6328C107.803 22.1261 107.931 23.4488 108.187 24.6008C108.443 25.7315 108.816 26.6808 109.307 27.4488C109.819 28.1955 110.427 28.7608 111.131 29.1448C111.835 29.5288 112.613 29.7208 113.467 29.7208C114.107 29.7208 114.651 29.6461 115.099 29.4968C115.547 29.3475 115.92 29.1768 116.219 28.9848C116.517 28.7715 116.752 28.5795 116.923 28.4088V23.7368C116.923 23.2675 116.741 22.9581 116.379 22.8088C116.037 22.6595 115.579 22.5848 115.003 22.5848H114.683V20.5048H124.315V22.5848H124.123C123.675 22.5848 123.291 22.6595 122.971 22.8088C122.672 22.9581 122.523 23.2675 122.523 23.7368ZM132.255 23.8648C132.255 24.8248 132.34 25.6781 132.511 26.4248C132.682 27.1501 132.948 27.7688 133.311 28.2808C133.674 28.7715 134.122 29.1448 134.655 29.4008C135.21 29.6355 135.85 29.7528 136.575 29.7528C137.343 29.7528 138.004 29.6141 138.559 29.3368C139.114 29.0381 139.594 28.6541 139.999 28.1848C140.404 27.7155 140.735 27.2461 140.991 26.7768L142.975 28.1848C142.57 28.9955 142.036 29.7101 141.375 30.3288C140.714 30.9475 139.914 31.4381 138.975 31.8008C138.058 32.1421 136.959 32.3128 135.679 32.3128C133.823 32.3128 132.191 31.9715 130.783 31.2888C129.396 30.6061 128.319 29.6355 127.551 28.3768C126.783 27.0968 126.399 25.5821 126.399 23.8328C126.399 22.1261 126.772 20.6328 127.519 19.3528C128.287 18.0515 129.322 17.0488 130.623 16.3448C131.946 15.6195 133.439 15.2568 135.103 15.2568C136.447 15.2568 137.62 15.4595 138.623 15.8648C139.647 16.2488 140.5 16.8355 141.183 17.6248C141.866 18.4141 142.388 19.3955 142.751 20.5688C143.114 21.7421 143.295 23.1181 143.295 24.6968H131.487L131.455 22.4248H138.559L137.855 23.3528C137.834 22.2648 137.77 21.3581 137.663 20.6328C137.556 19.9075 137.396 19.3315 137.183 18.9048C136.97 18.4781 136.703 18.1795 136.383 18.0088C136.063 17.8168 135.679 17.7208 135.231 17.7208C134.783 17.7208 134.378 17.8381 134.015 18.0728C133.652 18.3075 133.343 18.6701 133.087 19.1608C132.831 19.6515 132.628 20.2915 132.479 21.0808C132.33 21.8488 132.255 22.7768 132.255 23.8648ZM157.98 15.5448V20.5048C157.81 20.4408 157.618 20.3981 157.404 20.3768C157.212 20.3341 156.999 20.3021 156.764 20.2808C156.53 20.2595 156.295 20.2488 156.06 20.2488C155.57 20.2488 155.111 20.3021 154.684 20.4088C154.279 20.4941 153.895 20.6435 153.532 20.8568C153.191 21.0488 152.882 21.3155 152.604 21.6568C152.327 21.9768 152.071 22.3821 151.836 22.8728V21.0488C152.114 19.9395 152.455 18.9581 152.86 18.1048C153.287 17.2515 153.81 16.5901 154.428 16.1208C155.047 15.6301 155.836 15.3848 156.796 15.3848C157.052 15.3848 157.287 15.4061 157.5 15.4488C157.714 15.4701 157.874 15.5021 157.98 15.5448ZM144.956 31.9928V30.0408H144.988C145.479 30.0408 145.874 29.9768 146.172 29.8488C146.492 29.7208 146.652 29.4648 146.652 29.0808V18.7448C146.652 18.5315 146.599 18.3608 146.492 18.2328C146.407 18.1048 146.258 18.0088 146.044 17.9448C145.831 17.8595 145.554 17.7741 145.212 17.6888L144.956 17.6248V15.5768H152.124V20.7928L152.508 20.4088V29.4648C152.508 29.6355 152.626 29.7635 152.86 29.8488C153.095 29.9341 153.372 29.9875 153.692 30.0088C154.012 30.0301 154.3 30.0408 154.556 30.0408H154.844V31.9928H144.956ZM159.519 31.9928V30.0408H159.551C160.041 30.0408 160.436 29.9768 160.735 29.8488C161.055 29.7208 161.215 29.4648 161.215 29.0808V18.7448C161.215 18.5315 161.161 18.3608 161.055 18.2328C160.969 18.1048 160.82 18.0088 160.607 17.9448C160.393 17.8595 160.116 17.7741 159.775 17.6888L159.519 17.6248V15.5768H166.687V19.2248L167.071 19.1288V29.7528C167.071 29.8168 167.135 29.8808 167.263 29.9448C167.412 29.9875 167.572 30.0195 167.743 30.0408C167.935 30.0408 168.116 30.0408 168.287 30.0408H168.383V31.9928H159.519ZM178.495 31.9928H170.015V30.0408H170.047C170.239 30.0408 170.431 30.0408 170.623 30.0408C170.815 30.0195 170.975 29.9875 171.103 29.9448C171.252 29.8808 171.327 29.8168 171.327 29.7528V20.7608C171.327 20.2275 171.284 19.7901 171.199 19.4488C171.113 19.0861 170.964 18.8195 170.751 18.6488C170.559 18.4781 170.271 18.3928 169.887 18.3928C169.481 18.3928 169.087 18.5208 168.703 18.7768C168.319 19.0115 167.935 19.3955 167.551 19.9288C167.188 20.4621 166.815 21.1661 166.431 22.0408L166.367 19.1608C166.815 18.3288 167.316 17.6248 167.871 17.0488C168.425 16.4728 169.055 16.0355 169.759 15.7368C170.484 15.4168 171.273 15.2568 172.127 15.2568C173.129 15.2568 174.015 15.4701 174.783 15.8968C175.551 16.3021 176.137 16.9208 176.543 17.7528C176.969 18.5635 177.183 19.5768 177.183 20.7928V29.7208C177.183 29.8061 177.247 29.8808 177.375 29.9448C177.524 29.9875 177.695 30.0195 177.887 30.0408C178.1 30.0408 178.292 30.0408 178.463 30.0408H178.495V31.9928ZM189.055 31.9928H180.159V30.0408H180.223C180.393 30.0408 180.575 30.0301 180.767 30.0088C180.959 29.9875 181.119 29.9555 181.247 29.9128C181.396 29.8701 181.471 29.8168 181.471 29.7528V20.7608C181.471 20.2275 181.417 19.7901 181.311 19.4488C181.225 19.0861 181.076 18.8195 180.863 18.6488C180.671 18.4781 180.383 18.3928 179.999 18.3928C179.572 18.3928 179.167 18.5315 178.783 18.8088C178.399 19.0648 178.025 19.4595 177.663 19.9928C177.3 20.5048 176.927 21.1661 176.543 21.9768L176.479 19.1608C176.927 18.3288 177.428 17.6248 177.983 17.0488C178.559 16.4728 179.199 16.0355 179.903 15.7368C180.607 15.4168 181.385 15.2568 182.239 15.2568C183.241 15.2568 184.127 15.4701 184.895 15.8968C185.663 16.3021 186.249 16.9208 186.655 17.7528C187.081 18.5635 187.295 19.5768 187.295 20.7928V29.0808C187.295 29.4648 187.455 29.7208 187.775 29.8488C188.095 29.9768 188.489 30.0408 188.959 30.0408H189.055V31.9928ZM201.275 22.1368V24.0248C200.549 24.1315 199.899 24.2595 199.323 24.4088C198.768 24.5581 198.277 24.7395 197.851 24.9528C197.424 25.1661 197.072 25.4115 196.795 25.6888C196.539 25.9448 196.336 26.2541 196.187 26.6168C196.059 26.9581 195.995 27.3208 195.995 27.7048C195.995 28.1955 196.069 28.6008 196.219 28.9208C196.389 29.2408 196.624 29.4861 196.923 29.6568C197.221 29.8061 197.573 29.8808 197.979 29.8808C198.469 29.8808 198.917 29.7528 199.323 29.4968C199.728 29.2195 200.091 28.8355 200.411 28.3448C200.731 27.8541 201.008 27.2781 201.243 26.6168L201.307 28.8248C200.987 29.5715 200.581 30.2008 200.091 30.7128C199.6 31.2248 199.003 31.6195 198.299 31.8968C197.616 32.1741 196.816 32.3128 195.899 32.3128C194.811 32.3128 193.861 32.1528 193.051 31.8328C192.261 31.4915 191.643 31.0008 191.195 30.3608C190.768 29.6995 190.555 28.8995 190.555 27.9608C190.555 27.0648 190.779 26.2968 191.227 25.6568C191.696 25.0168 192.379 24.4728 193.275 24.0248C194.171 23.5768 195.291 23.2035 196.635 22.9048C197.979 22.5848 199.525 22.3288 201.275 22.1368ZM200.955 31.9928V28.8248L200.571 28.8888V20.1528C200.571 19.5555 200.485 19.0755 200.315 18.7128C200.144 18.3288 199.877 18.0621 199.515 17.9128C199.173 17.7421 198.747 17.6568 198.235 17.6568C197.467 17.6568 196.827 17.8275 196.315 18.1688C195.824 18.4888 195.451 18.8941 195.195 19.3848C195.003 19.1715 194.896 18.9688 194.875 18.7768C194.853 18.5635 194.885 18.3715 194.971 18.2008C195.077 18.0301 195.237 17.8808 195.451 17.7528C195.664 17.6035 195.92 17.5075 196.219 17.4648V20.8888H191.674V17.4008C191.995 17.1661 192.464 16.8888 193.083 16.5688C193.723 16.2275 194.523 15.9288 195.483 15.6728C196.443 15.3955 197.563 15.2568 198.843 15.2568C199.931 15.2568 200.923 15.3741 201.819 15.6088C202.736 15.8221 203.525 16.1528 204.187 16.6008C204.848 17.0488 205.36 17.6355 205.722 18.3608C206.085 19.0648 206.267 19.9288 206.267 20.9528V28.9848C206.267 29.1981 206.331 29.3688 206.458 29.4968C206.587 29.6248 206.768 29.7208 207.003 29.7848C207.237 29.8488 207.515 29.9021 207.835 29.9448L207.963 29.9768V31.9928H200.955ZM209.144 31.9928V30.0408H209.176C209.496 30.0408 209.784 30.0195 210.04 29.9768C210.296 29.9128 210.488 29.8168 210.616 29.6888C210.765 29.5395 210.84 29.3368 210.84 29.0808V18.7448C210.84 18.5101 210.786 18.3395 210.68 18.2328C210.594 18.1048 210.445 18.0088 210.232 17.9448C210.018 17.8595 209.741 17.7741 209.4 17.6888L209.144 17.6248V15.5768H216.312V19.1288H216.696V29.7528C216.696 29.8168 216.77 29.8701 216.92 29.9128C217.09 29.9555 217.282 29.9875 217.496 30.0088C217.73 30.0301 217.944 30.0408 218.136 30.0408H218.232V31.9928H209.144ZM229.272 31.9928H220.184V30.0408H220.216C220.408 30.0408 220.621 30.0408 220.856 30.0408C221.09 30.0195 221.293 29.9875 221.464 29.9448C221.634 29.8808 221.72 29.8168 221.72 29.7528V20.7288C221.72 20.1955 221.656 19.7581 221.528 19.4168C221.4 19.0755 221.208 18.8195 220.952 18.6488C220.696 18.4781 220.354 18.3928 219.928 18.3928C219.416 18.3928 218.936 18.5421 218.488 18.8408C218.04 19.1181 217.613 19.5341 217.208 20.0888C216.802 20.6435 216.418 21.3368 216.056 22.1688L215.992 19.2248C216.418 18.3928 216.92 17.6888 217.496 17.1128C218.093 16.5155 218.776 16.0568 219.544 15.7368C220.333 15.4168 221.197 15.2568 222.136 15.2568C223.224 15.2568 224.173 15.4701 224.984 15.8968C225.794 16.3021 226.424 16.9208 226.872 17.7528C227.32 18.5635 227.544 19.5768 227.544 20.7928V29.0808C227.544 29.3368 227.618 29.5395 227.768 29.6888C227.917 29.8168 228.109 29.9128 228.344 29.9768C228.6 30.0195 228.888 30.0408 229.208 30.0408H229.272V31.9928ZM110.745 73.7848C111.513 73.7848 112.164 73.6781 112.697 73.4648C113.231 73.2515 113.636 72.9315 113.913 72.5048C114.212 72.0568 114.361 71.5021 114.361 70.8408C114.361 70.2648 114.212 69.7848 113.913 69.4008C113.636 68.9955 113.231 68.6541 112.697 68.3768C112.185 68.0995 111.567 67.8541 110.841 67.6408C110.137 67.4061 109.348 67.1608 108.473 66.9048C107.641 66.6488 106.831 66.3501 106.041 66.0088C105.252 65.6461 104.537 65.1981 103.897 64.6648C103.279 64.1101 102.777 63.4275 102.393 62.6168C102.031 61.8061 101.849 60.8141 101.849 59.6408C101.849 58.2115 102.191 57.0061 102.873 56.0248C103.577 55.0221 104.505 54.2648 105.657 53.7528C106.831 53.2195 108.111 52.9528 109.497 52.9528C110.671 52.9528 111.705 53.1128 112.601 53.4328C113.497 53.7528 114.276 54.2861 114.937 55.0328C115.62 55.7581 116.185 56.7501 116.633 58.0088L115.001 57.7848L115.641 53.2728H117.945V59.2888H115.257C115.001 58.4781 114.617 57.7848 114.105 57.2088C113.615 56.6328 113.028 56.1955 112.345 55.8968C111.684 55.5981 110.969 55.4488 110.201 55.4488C109.497 55.4488 108.9 55.5555 108.409 55.7688C107.919 55.9821 107.545 56.2808 107.289 56.6648C107.033 57.0488 106.905 57.5181 106.905 58.0728C106.905 58.6061 107.044 59.0648 107.321 59.4488C107.62 59.8115 108.015 60.1208 108.505 60.3768C109.017 60.6115 109.604 60.8248 110.265 61.0168C110.948 61.2088 111.663 61.4008 112.409 61.5928C113.348 61.8488 114.233 62.1475 115.065 62.4888C115.919 62.8301 116.687 63.2781 117.369 63.8328C118.052 64.3661 118.585 65.0381 118.969 65.8488C119.353 66.6381 119.545 67.6195 119.545 68.7928C119.545 70.3075 119.204 71.6301 118.521 72.7608C117.86 73.8915 116.9 74.7661 115.641 75.3848C114.404 76.0035 112.932 76.3128 111.225 76.3128C109.988 76.3128 108.804 76.1208 107.673 75.7368C106.564 75.3528 105.572 74.7341 104.697 73.8808C103.823 73.0061 103.129 71.8328 102.617 70.3608L104.345 70.7448L103.737 75.9928H101.273V68.8568H104.153C104.516 69.9021 105.028 70.7981 105.689 71.5448C106.372 72.2701 107.151 72.8248 108.025 73.2088C108.9 73.5928 109.807 73.7848 110.745 73.7848ZM131.904 72.3768L130.24 75.5448L128.736 77.7208L122.048 62.6488C121.92 62.3501 121.781 62.1261 121.632 61.9768C121.483 61.8061 121.301 61.6888 121.088 61.6248C120.875 61.5608 120.597 61.5288 120.256 61.5288H120.224V59.5768H129.792V61.5288H129.728C129.408 61.5288 129.088 61.5395 128.768 61.5608C128.448 61.5821 128.181 61.6141 127.968 61.6568C127.776 61.6781 127.68 61.7315 127.68 61.8168L131.904 72.3768ZM131.712 75.4488C131.093 76.8781 130.475 78.0941 129.856 79.0968C129.259 80.1208 128.651 80.9528 128.032 81.5928C127.435 82.2328 126.795 82.7021 126.112 83.0008C125.451 83.3208 124.725 83.4808 123.936 83.4808C123.317 83.4808 122.784 83.4061 122.336 83.2568C121.909 83.1075 121.579 82.9475 121.344 82.7768V78.5848C121.451 78.6061 121.653 78.6808 121.952 78.8088C122.272 78.9368 122.656 79.0648 123.104 79.1928C123.552 79.3208 124.021 79.3848 124.512 79.3848C125.024 79.3848 125.483 79.3208 125.888 79.1928C126.315 79.0648 126.72 78.8515 127.104 78.5528C127.488 78.2541 127.861 77.8275 128.224 77.2728C128.587 76.7395 128.928 76.0675 129.248 75.2568L129.952 73.6888L134.88 62.2328C134.88 62.0835 134.784 61.9661 134.592 61.8808C134.421 61.7741 134.176 61.6888 133.856 61.6248C133.557 61.5608 133.248 61.5288 132.928 61.5288H132.832V59.5768H139.04V61.5288H139.008C138.731 61.5288 138.485 61.5715 138.272 61.6568C138.059 61.7421 137.856 61.8915 137.664 62.1048C137.472 62.3181 137.301 62.6061 137.152 62.9688L131.712 75.4488ZM147.57 52.4408V73.0808C147.57 73.4648 147.73 73.7208 148.05 73.8488C148.37 73.9768 148.765 74.0408 149.234 74.0408H149.266V75.9928H139.986V74.0408H140.018C140.509 74.0408 140.914 73.9768 141.234 73.8488C141.554 73.7208 141.714 73.4648 141.714 73.0808V55.5768C141.714 55.3635 141.661 55.1928 141.554 55.0648C141.469 54.9368 141.319 54.8301 141.106 54.7448C140.893 54.6595 140.615 54.5848 140.274 54.5208L139.986 54.4568V52.4408H147.57ZM158.07 52.4408V73.0808C158.07 73.4648 158.23 73.7208 158.55 73.8488C158.87 73.9768 159.265 74.0408 159.734 74.0408H159.766V75.9928H150.486V74.0408H150.518C151.009 74.0408 151.414 73.9768 151.734 73.8488C152.054 73.7208 152.214 73.4648 152.214 73.0808V55.5768C152.214 55.3635 152.161 55.1928 152.054 55.0648C151.969 54.9368 151.819 54.8301 151.606 54.7448C151.393 54.6595 151.115 54.5848 150.774 54.5208L150.486 54.4568V52.4408H158.07ZM171.962 66.1368V68.0248C171.237 68.1315 170.586 68.2595 170.01 68.4088C169.455 68.5581 168.965 68.7395 168.538 68.9528C168.111 69.1661 167.759 69.4115 167.482 69.6888C167.226 69.9448 167.023 70.2541 166.874 70.6168C166.746 70.9581 166.682 71.3208 166.682 71.7048C166.682 72.1955 166.757 72.6008 166.906 72.9208C167.077 73.2408 167.311 73.4861 167.61 73.6568C167.909 73.8061 168.261 73.8808 168.666 73.8808C169.157 73.8808 169.605 73.7528 170.01 73.4968C170.415 73.2195 170.778 72.8355 171.098 72.3448C171.418 71.8541 171.695 71.2781 171.93 70.6168L171.994 72.8248C171.674 73.5715 171.269 74.2008 170.778 74.7128C170.287 75.2248 169.69 75.6195 168.986 75.8968C168.303 76.1741 167.503 76.3128 166.586 76.3128C165.498 76.3128 164.549 76.1528 163.738 75.8328C162.949 75.4915 162.33 75.0008 161.882 74.3608C161.455 73.6995 161.242 72.8995 161.242 71.9608C161.242 71.0648 161.466 70.2968 161.914 69.6568C162.383 69.0168 163.066 68.4728 163.962 68.0248C164.858 67.5768 165.978 67.2035 167.322 66.9048C168.666 66.5848 170.213 66.3288 171.962 66.1368ZM171.642 75.9928V72.8248L171.258 72.8888V64.1528C171.258 63.5555 171.173 63.0755 171.002 62.7128C170.831 62.3288 170.565 62.0621 170.202 61.9128C169.861 61.7421 169.434 61.6568 168.922 61.6568C168.154 61.6568 167.514 61.8275 167.002 62.1688C166.511 62.4888 166.138 62.8941 165.882 63.3848C165.69 63.1715 165.583 62.9688 165.562 62.7768C165.541 62.5635 165.573 62.3715 165.658 62.2008C165.765 62.0301 165.925 61.8808 166.138 61.7528C166.351 61.6035 166.607 61.5075 166.906 61.4648V64.8888H162.362V61.4008C162.682 61.1661 163.151 60.8888 163.77 60.5688C164.41 60.2275 165.21 59.9288 166.17 59.6728C167.13 59.3955 168.25 59.2568 169.53 59.2568C170.618 59.2568 171.61 59.3741 172.506 59.6088C173.423 59.8221 174.213 60.1528 174.874 60.6008C175.535 61.0488 176.047 61.6355 176.41 62.3608C176.773 63.0648 176.954 63.9288 176.954 64.9528V72.9848C176.954 73.1981 177.018 73.3688 177.146 73.4968C177.274 73.6248 177.455 73.7208 177.69 73.7848C177.925 73.8488 178.202 73.9021 178.522 73.9448L178.65 73.9768V75.9928H171.642ZM191.863 76.3128C190.925 76.3128 190.093 76.1955 189.367 75.9608C188.642 75.7261 188.002 75.3635 187.447 74.8728C186.893 74.3608 186.381 73.6995 185.911 72.8888L186.039 69.0488C186.487 69.9661 186.903 70.7555 187.287 71.4168C187.693 72.0781 188.13 72.5901 188.599 72.9528C189.09 73.2941 189.655 73.4648 190.295 73.4648C190.829 73.4648 191.287 73.3368 191.671 73.0808C192.077 72.8035 192.407 72.4088 192.663 71.8968C192.919 71.3848 193.101 70.7768 193.207 70.0728C193.335 69.3475 193.399 68.5261 193.399 67.6088C193.399 66.7341 193.335 65.9555 193.207 65.2728C193.101 64.5901 192.919 64.0141 192.663 63.5448C192.429 63.0755 192.13 62.7235 191.767 62.4888C191.405 62.2541 190.978 62.1368 190.487 62.1368C189.911 62.1368 189.378 62.3075 188.887 62.6488C188.418 62.9901 187.949 63.5128 187.479 64.2168C187.031 64.9208 186.541 65.8061 186.007 66.8728L185.911 63.7688C186.53 62.7235 187.138 61.8701 187.735 61.2088C188.333 60.5475 188.983 60.0568 189.687 59.7368C190.391 59.4168 191.213 59.2568 192.151 59.2568C193.602 59.2568 194.871 59.6088 195.959 60.3128C197.069 61.0168 197.922 61.9981 198.519 63.2568C199.117 64.4941 199.415 65.9448 199.415 67.6088C199.415 69.3155 199.095 70.8301 198.455 72.1528C197.815 73.4541 196.93 74.4781 195.799 75.2248C194.669 75.9501 193.357 76.3128 191.863 76.3128ZM181.303 55.5768C181.303 55.3635 181.25 55.1928 181.143 55.0648C181.058 54.9368 180.909 54.8301 180.695 54.7448C180.482 54.6595 180.205 54.5848 179.863 54.5208L179.575 54.4568V52.4408H187.159V72.4408L186.487 72.6648L184.823 76.0248H181.303V55.5768ZM208.758 52.4408V73.0808C208.758 73.4648 208.918 73.7208 209.238 73.8488C209.558 73.9768 209.952 74.0408 210.422 74.0408H210.454V75.9928H201.174V74.0408H201.206C201.696 74.0408 202.102 73.9768 202.422 73.8488C202.742 73.7208 202.902 73.4648 202.902 73.0808V55.5768C202.902 55.3635 202.848 55.1928 202.742 55.0648C202.656 54.9368 202.507 54.8301 202.294 54.7448C202.08 54.6595 201.803 54.5848 201.462 54.5208L201.174 54.4568V52.4408H208.758ZM217.818 67.8648C217.818 68.8248 217.903 69.6781 218.074 70.4248C218.244 71.1501 218.511 71.7688 218.874 72.2808C219.236 72.7715 219.684 73.1448 220.218 73.4008C220.772 73.6355 221.412 73.7528 222.138 73.7528C222.906 73.7528 223.567 73.6141 224.122 73.3368C224.676 73.0381 225.156 72.6541 225.562 72.1848C225.967 71.7155 226.298 71.2461 226.554 70.7768L228.538 72.1848C228.132 72.9955 227.599 73.7101 226.938 74.3288C226.276 74.9475 225.476 75.4381 224.538 75.8008C223.62 76.1421 222.522 76.3128 221.242 76.3128C219.386 76.3128 217.754 75.9715 216.346 75.2888C214.959 74.6061 213.882 73.6355 213.114 72.3768C212.346 71.0968 211.962 69.5821 211.962 67.8328C211.962 66.1261 212.335 64.6328 213.082 63.3528C213.85 62.0515 214.884 61.0488 216.186 60.3448C217.508 59.6195 219.002 59.2568 220.666 59.2568C222.01 59.2568 223.183 59.4595 224.186 59.8648C225.21 60.2488 226.063 60.8355 226.746 61.6248C227.428 62.4141 227.951 63.3955 228.314 64.5688C228.676 65.7421 228.858 67.1181 228.858 68.6968H217.05L217.018 66.4248H224.122L223.418 67.3528C223.396 66.2648 223.332 65.3581 223.226 64.6328C223.119 63.9075 222.959 63.3315 222.746 62.9048C222.532 62.4781 222.266 62.1795 221.946 62.0088C221.626 61.8168 221.242 61.7208 220.794 61.7208C220.346 61.7208 219.94 61.8381 219.578 62.0728C219.215 62.3075 218.906 62.6701 218.65 63.1608C218.394 63.6515 218.191 64.2915 218.042 65.0808C217.892 65.8488 217.818 66.7768 217.818 67.8648Z" fill="white"/>
<path d="M114.339 117.785C115.107 117.785 115.758 117.678 116.291 117.465C116.824 117.251 117.23 116.931 117.507 116.505C117.806 116.057 117.955 115.502 117.955 114.841C117.955 114.265 117.806 113.785 117.507 113.401C117.23 112.995 116.824 112.654 116.291 112.377C115.779 112.099 115.16 111.854 114.435 111.641C113.731 111.406 112.942 111.161 112.067 110.905C111.235 110.649 110.424 110.35 109.635 110.009C108.846 109.646 108.131 109.198 107.491 108.665C106.872 108.11 106.371 107.427 105.987 106.617C105.624 105.806 105.443 104.814 105.443 103.641C105.443 102.211 105.784 101.006 106.467 100.025C107.171 99.0221 108.099 98.2648 109.251 97.7528C110.424 97.2195 111.704 96.9528 113.091 96.9528C114.264 96.9528 115.299 97.1128 116.195 97.4328C117.091 97.7528 117.87 98.2861 118.531 99.0328C119.214 99.7581 119.779 100.75 120.227 102.009L118.595 101.785L119.235 97.2728H121.539V103.289H118.851C118.595 102.478 118.211 101.785 117.699 101.209C117.208 100.633 116.622 100.195 115.939 99.8968C115.278 99.5981 114.563 99.4488 113.795 99.4488C113.091 99.4488 112.494 99.5555 112.003 99.7688C111.512 99.9821 111.139 100.281 110.883 100.665C110.627 101.049 110.499 101.518 110.499 102.073C110.499 102.606 110.638 103.065 110.915 103.449C111.214 103.811 111.608 104.121 112.099 104.377C112.611 104.611 113.198 104.825 113.859 105.017C114.542 105.209 115.256 105.401 116.003 105.593C116.942 105.849 117.827 106.147 118.659 106.489C119.512 106.83 120.28 107.278 120.963 107.833C121.646 108.366 122.179 109.038 122.563 109.849C122.947 110.638 123.139 111.619 123.139 112.793C123.139 114.307 122.798 115.63 122.115 116.761C121.454 117.891 120.494 118.766 119.235 119.385C117.998 120.003 116.526 120.313 114.819 120.313C113.582 120.313 112.398 120.121 111.267 119.737C110.158 119.353 109.166 118.734 108.291 117.881C107.416 117.006 106.723 115.833 106.211 114.361L107.939 114.745L107.331 119.993H104.867V112.857H107.747C108.11 113.902 108.622 114.798 109.283 115.545C109.966 116.27 110.744 116.825 111.619 117.209C112.494 117.593 113.4 117.785 114.339 117.785ZM134.781 127.129H124.861V125.177H124.893C125.213 125.177 125.501 125.145 125.757 125.081C126.013 125.038 126.216 124.942 126.365 124.793C126.514 124.665 126.589 124.473 126.589 124.217V106.745C126.589 106.531 126.536 106.361 126.429 106.233C126.322 106.105 126.162 106.009 125.949 105.945C125.736 105.859 125.458 105.774 125.117 105.689L124.861 105.625V103.577H132.029V107.833L132.413 107.897V124.889C132.413 124.953 132.52 125.006 132.733 125.049C132.968 125.091 133.234 125.123 133.533 125.145C133.853 125.166 134.141 125.177 134.397 125.177H134.781V127.129ZM137.117 120.313C136.285 120.313 135.538 120.217 134.877 120.025C134.237 119.833 133.65 119.534 133.117 119.129C132.584 118.702 132.093 118.158 131.645 117.497L131.741 113.785C132.061 114.531 132.392 115.182 132.733 115.737C133.096 116.291 133.501 116.729 133.949 117.049C134.397 117.347 134.92 117.497 135.517 117.497C136.072 117.497 136.541 117.358 136.925 117.081C137.33 116.803 137.661 116.409 137.917 115.897C138.173 115.385 138.365 114.766 138.493 114.041C138.621 113.315 138.685 112.505 138.685 111.609C138.685 110.734 138.621 109.955 138.493 109.273C138.365 108.59 138.184 108.014 137.949 107.545C137.714 107.075 137.405 106.723 137.021 106.489C136.658 106.254 136.232 106.137 135.741 106.137C135.144 106.137 134.61 106.307 134.141 106.649C133.693 106.969 133.266 107.438 132.861 108.057C132.477 108.654 132.093 109.379 131.709 110.233L131.645 107.033C132.157 106.201 132.68 105.507 133.213 104.953C133.768 104.398 134.376 103.982 135.037 103.705C135.72 103.406 136.498 103.257 137.373 103.257C138.845 103.257 140.125 103.609 141.213 104.313C142.322 105.017 143.176 105.998 143.773 107.257C144.37 108.494 144.669 109.945 144.669 111.609C144.669 113.315 144.349 114.83 143.709 116.153C143.069 117.454 142.184 118.478 141.053 119.225C139.922 119.95 138.61 120.313 137.117 120.313ZM154.008 96.4408V117.081C154.008 117.465 154.168 117.721 154.488 117.849C154.808 117.977 155.202 118.041 155.672 118.041H155.704V119.993H146.424V118.041H146.456C146.946 118.041 147.352 117.977 147.672 117.849C147.992 117.721 148.152 117.465 148.152 117.081V99.5768C148.152 99.3635 148.098 99.1928 147.992 99.0648C147.906 98.9368 147.757 98.8301 147.544 98.7448C147.33 98.6595 147.053 98.5848 146.712 98.5208L146.424 98.4568V96.4408H154.008ZM161.532 101.337C160.572 101.337 159.804 101.113 159.228 100.665C158.673 100.195 158.396 99.5448 158.396 98.7128C158.396 97.8808 158.673 97.2408 159.228 96.7928C159.804 96.3235 160.572 96.0888 161.532 96.0888C162.513 96.0888 163.281 96.3235 163.836 96.7928C164.412 97.2408 164.7 97.8808 164.7 98.7128C164.7 99.5448 164.412 100.195 163.836 100.665C163.281 101.113 162.513 101.337 161.532 101.337ZM164.54 103.577V117.081C164.54 117.465 164.7 117.721 165.02 117.849C165.361 117.977 165.766 118.041 166.236 118.041H166.268V119.993H156.988V118.041H157.02C157.51 118.041 157.916 117.977 158.236 117.849C158.556 117.721 158.716 117.465 158.716 117.081V106.745C158.716 106.403 158.598 106.169 158.364 106.041C158.129 105.913 157.756 105.795 157.243 105.689L156.988 105.625V103.577H164.54ZM166.941 105.849V103.737H167.037C167.506 103.737 167.911 103.705 168.253 103.641C168.594 103.555 168.861 103.417 169.053 103.225C169.245 103.011 169.341 102.723 169.341 102.361L172.541 103.577H179.069V105.849H166.941ZM174.941 114.393C174.941 115.225 175.026 115.886 175.197 116.377C175.389 116.846 175.655 117.187 175.997 117.401C176.338 117.593 176.754 117.689 177.245 117.689C177.65 117.689 178.034 117.646 178.397 117.561C178.759 117.454 179.037 117.379 179.229 117.337V119.737C179.058 119.822 178.802 119.907 178.461 119.993C178.119 120.078 177.725 120.153 177.277 120.217C176.829 120.281 176.317 120.313 175.741 120.313C174.482 120.313 173.351 120.131 172.349 119.769C171.346 119.406 170.546 118.798 169.949 117.945C169.373 117.091 169.085 115.929 169.085 114.457V104.185L169.341 103.929L169.373 99.1288H174.941V114.393ZM180.378 105.849V103.737H180.474C180.943 103.737 181.349 103.705 181.69 103.641C182.031 103.555 182.298 103.417 182.49 103.225C182.682 103.011 182.778 102.723 182.778 102.361L185.978 103.577H192.506V105.849H180.378ZM188.378 114.393C188.378 115.225 188.463 115.886 188.634 116.377C188.826 116.846 189.093 117.187 189.434 117.401C189.775 117.593 190.191 117.689 190.682 117.689C191.087 117.689 191.471 117.646 191.834 117.561C192.197 117.454 192.474 117.379 192.666 117.337V119.737C192.495 119.822 192.239 119.907 191.898 119.993C191.557 120.078 191.162 120.153 190.714 120.217C190.266 120.281 189.754 120.313 189.178 120.313C187.919 120.313 186.789 120.131 185.786 119.769C184.783 119.406 183.983 118.798 183.386 117.945C182.81 117.091 182.522 115.929 182.522 114.457V104.185L182.778 103.929L182.81 99.1288H188.378V114.393ZM199.661 111.865C199.661 112.825 199.747 113.678 199.917 114.425C200.088 115.15 200.355 115.769 200.717 116.281C201.08 116.771 201.528 117.145 202.061 117.401C202.616 117.635 203.256 117.753 203.981 117.753C204.749 117.753 205.411 117.614 205.965 117.337C206.52 117.038 207 116.654 207.405 116.185C207.811 115.715 208.141 115.246 208.397 114.777L210.381 116.185C209.976 116.995 209.443 117.71 208.781 118.329C208.12 118.947 207.32 119.438 206.381 119.801C205.464 120.142 204.365 120.313 203.085 120.313C201.229 120.313 199.597 119.971 198.189 119.289C196.803 118.606 195.725 117.635 194.957 116.377C194.189 115.097 193.805 113.582 193.805 111.833C193.805 110.126 194.179 108.633 194.925 107.353C195.693 106.051 196.728 105.049 198.029 104.345C199.352 103.619 200.845 103.257 202.509 103.257C203.853 103.257 205.027 103.459 206.029 103.865C207.053 104.249 207.907 104.835 208.589 105.625C209.272 106.414 209.795 107.395 210.157 108.569C210.52 109.742 210.701 111.118 210.701 112.697H198.893L198.861 110.425H205.965L205.261 111.353C205.24 110.265 205.176 109.358 205.069 108.633C204.963 107.907 204.803 107.331 204.589 106.905C204.376 106.478 204.109 106.179 203.789 106.009C203.469 105.817 203.085 105.721 202.637 105.721C202.189 105.721 201.784 105.838 201.421 106.073C201.059 106.307 200.749 106.67 200.493 107.161C200.237 107.651 200.035 108.291 199.885 109.081C199.736 109.849 199.661 110.777 199.661 111.865ZM225.387 103.545V108.505C225.216 108.441 225.024 108.398 224.811 108.377C224.619 108.334 224.405 108.302 224.171 108.281C223.936 108.259 223.701 108.249 223.467 108.249C222.976 108.249 222.517 108.302 222.091 108.409C221.685 108.494 221.301 108.643 220.939 108.857C220.597 109.049 220.288 109.315 220.01 109.657C219.733 109.977 219.477 110.382 219.243 110.873V109.049C219.52 107.939 219.861 106.958 220.267 106.105C220.693 105.251 221.216 104.59 221.835 104.121C222.453 103.63 223.243 103.385 224.203 103.385C224.459 103.385 224.693 103.406 224.907 103.449C225.12 103.47 225.28 103.502 225.387 103.545ZM212.363 119.993V118.041H212.395C212.885 118.041 213.28 117.977 213.579 117.849C213.899 117.721 214.059 117.465 214.059 117.081V106.745C214.059 106.531 214.005 106.361 213.899 106.233C213.813 106.105 213.664 106.009 213.451 105.945C213.237 105.859 212.96 105.774 212.618 105.689L212.363 105.625V103.577H219.531V108.793L219.915 108.409V117.465C219.915 117.635 220.032 117.763 220.267 117.849C220.501 117.934 220.779 117.987 221.099 118.009C221.419 118.03 221.707 118.041 221.963 118.041H222.251V119.993H212.363Z" fill="black"/>
</svg>
