<svg width="330" height="130" viewBox="0 0 330 130" fill="none" xmlns="http://www.w3.org/2000/svg">
<rect x="1" y="1" width="328" height="128" rx="14" fill="white" stroke="#203C3C" stroke-width="2"/>
<path d="M45.6035 84.0743C45.6035 84.4493 45.4746 84.7892 45.2168 85.0939C44.959 85.3986 44.7363 85.6915 44.5488 85.9728C44.2207 86.1368 43.9043 86.2306 43.5996 86.254C43.3184 86.3009 43.0137 86.3829 42.6855 86.5001C42.5684 86.5236 42.4395 86.6056 42.2988 86.7462C42.1113 86.7228 41.9238 86.6407 41.7363 86.5001C41.5488 86.3829 41.3613 86.3009 41.1738 86.254C40.916 86.1603 40.5762 86.1017 40.1543 86.0782C39.7559 86.0548 39.4629 85.9376 39.2754 85.7267C38.9473 85.3986 38.666 84.965 38.4316 84.4259C38.2207 83.8868 38.0449 83.3126 37.9043 82.7032C37.7871 82.0939 37.6934 81.4962 37.623 80.9103C37.5762 80.3009 37.5527 79.7736 37.5527 79.3282C37.5527 78.5782 37.5996 77.8282 37.6934 77.0782C37.7871 76.3282 37.9277 75.6017 38.1152 74.8986V74.7228C38.1152 74.6056 38.1152 74.5118 38.1152 74.4415C38.1387 74.3478 38.1504 74.2423 38.1504 74.1251C38.1504 74.0548 38.1387 73.9845 38.1152 73.9142C38.1152 73.8439 38.0801 73.7853 38.0098 73.7384C38.3145 72.965 38.5371 72.1681 38.6777 71.3478C38.8184 70.5275 38.9238 69.7072 38.9941 68.8868C39.0879 68.0431 39.1816 67.2111 39.2754 66.3907C39.3926 65.547 39.5566 64.7267 39.7676 63.9298C39.7441 63.7892 39.7207 63.6368 39.6973 63.4728C39.6973 63.3087 39.6973 63.1564 39.6973 63.0157C39.6973 62.5939 39.7441 62.1837 39.8379 61.7853C39.9316 61.3634 39.9902 60.9298 40.0137 60.4845C40.0371 60.3439 40.0371 60.2032 40.0137 60.0626C39.9902 59.8986 39.9785 59.7345 39.9785 59.5704C39.9785 58.5392 40.0254 57.5314 40.1191 56.547C40.2363 55.5626 40.2949 54.5665 40.2949 53.5587C40.2949 53.0197 40.248 52.504 40.1543 52.0118C40.084 51.4962 40.0488 50.9806 40.0488 50.465C40.0488 50.2306 40.0605 50.0079 40.084 49.797C40.1074 49.5626 40.1777 49.3517 40.2949 49.1642C40.8105 48.8126 41.4199 48.6368 42.123 48.6368C42.6387 48.6368 43.084 48.7775 43.459 49.0587C43.4355 49.1056 43.4238 49.1759 43.4238 49.2697C43.4238 49.3868 43.4355 49.4923 43.459 49.5861C43.4824 49.6798 43.4941 49.7853 43.4941 49.9025V50.0431C43.4941 50.09 43.4824 50.1368 43.459 50.1837C43.623 50.465 43.7285 50.7697 43.7754 51.0978C43.8457 51.4025 43.8809 51.7189 43.8809 52.047C43.8809 52.3517 43.8691 52.6564 43.8457 52.9611C43.8223 53.2423 43.8105 53.5353 43.8105 53.84C43.8105 54.2618 43.8105 54.6837 43.8105 55.1056C43.834 55.5275 43.8457 55.9493 43.8457 56.3712C43.8457 57.4962 43.7871 58.6095 43.6699 59.7111C43.5762 60.7892 43.5059 61.8907 43.459 63.0157C43.4121 63.9767 43.2832 64.9142 43.0723 65.8282C42.8848 66.7423 42.7559 67.6681 42.6855 68.6056C42.6621 68.7931 42.6504 68.9806 42.6504 69.1681C42.6738 69.3322 42.6855 69.5197 42.6855 69.7306C42.6855 70.2697 42.5801 70.8087 42.3691 71.3478C42.1582 71.8634 42.0527 72.4142 42.0527 73.0001C42.0527 73.2814 42.0996 73.5275 42.1934 73.7384C42.0527 74.1134 41.9238 74.5587 41.8066 75.0743C41.7129 75.59 41.6191 76.129 41.5254 76.6915C41.4551 77.2306 41.3965 77.7697 41.3496 78.3087C41.3027 78.8243 41.2793 79.2814 41.2793 79.6798C41.2793 80.2423 41.3496 80.8165 41.4902 81.4025C41.6309 81.965 41.8652 82.4806 42.1934 82.9493C42.4277 83.0197 42.709 83.0548 43.0371 83.0548C43.3652 83.0548 43.6934 83.0665 44.0215 83.09C44.3496 83.1134 44.6543 83.172 44.9355 83.2657C45.2168 83.3595 45.4277 83.547 45.5684 83.8282C45.5918 83.8751 45.6035 83.922 45.6035 83.9689V84.0743ZM72.0762 59.2189C72.0293 59.5001 71.959 59.7462 71.8652 59.9572C71.7949 60.1447 71.7832 60.4025 71.8301 60.7306C71.5957 60.754 71.4082 60.8361 71.2676 60.9767C71.1504 61.0939 71.0449 61.2345 70.9512 61.3986C70.8809 61.5626 70.7988 61.7384 70.7051 61.9259C70.6348 62.09 70.541 62.2423 70.4238 62.3829C70.6113 63.2267 70.7168 64.0822 70.7402 64.9493C70.7637 65.8165 70.8223 66.672 70.916 67.5157C71.0332 68.5939 71.209 69.6603 71.4434 70.715C71.7012 71.7462 71.8301 72.8009 71.8301 73.879C71.8301 74.2072 71.8184 74.5118 71.7949 74.7931C71.7949 75.0743 71.7949 75.3673 71.7949 75.672C71.7949 75.8595 71.7949 76.0587 71.7949 76.2697C71.8184 76.4572 71.8301 76.6447 71.8301 76.8322C71.8301 77.5118 71.7363 78.1915 71.5488 78.8712C71.3848 79.5509 71.2559 80.2306 71.1621 80.9103C70.8809 81.1681 70.6348 81.4493 70.4238 81.754C70.2363 82.0587 70.0371 82.34 69.8262 82.5978C69.6152 82.8556 69.3691 83.0782 69.0879 83.2657C68.8066 83.4767 68.4551 83.6173 68.0332 83.6876C67.9629 83.922 67.8223 84.0978 67.6113 84.215C67.4238 84.3322 67.2598 84.4962 67.1191 84.7072H67.0488C66.4629 84.7072 65.959 84.6251 65.5371 84.4611C65.1152 84.297 64.7168 84.1095 64.3418 83.8986C63.9902 83.6876 63.627 83.465 63.252 83.2306C62.877 82.9962 62.4434 82.8087 61.9512 82.6681C61.2949 82.129 60.6973 81.5431 60.1582 80.9103C59.6191 80.254 59.0098 79.6681 58.3301 79.1525C58.166 78.6837 57.9434 78.297 57.6621 77.9923C57.4043 77.6876 57.1465 77.3361 56.8887 76.9376C56.7715 76.7736 56.6777 76.6212 56.6074 76.4806C56.5605 76.34 56.4902 76.1759 56.3965 75.9884C56.3262 75.8009 56.209 75.672 56.0449 75.6017C55.9043 75.5314 55.7754 75.4493 55.6582 75.3556C55.4707 74.629 55.2012 73.9611 54.8496 73.3517C54.498 72.7423 54.0879 72.1564 53.6191 71.5939C53.4785 71.8517 53.3613 72.1329 53.2676 72.4376C53.1973 72.7189 53.127 73.0118 53.0566 73.3165C52.9863 73.5978 52.8926 73.8907 52.7754 74.1954C52.6816 74.4767 52.5527 74.7345 52.3887 74.9689V75.0743C52.3887 75.1915 52.4355 75.2618 52.5293 75.2853C52.623 75.3087 52.6699 75.379 52.6699 75.4962C52.6699 75.5197 52.6582 75.5431 52.6348 75.5665C52.6348 75.59 52.6348 75.6134 52.6348 75.6368C52.5176 75.7306 52.4238 75.8478 52.3535 75.9884C52.3066 76.129 52.1895 76.2111 52.002 76.2345C52.0254 76.3517 52.0371 76.4689 52.0371 76.5861V76.9025C52.0371 77.5822 51.9551 78.2618 51.791 78.9415C51.6504 79.6212 51.5801 80.3126 51.5801 81.0157V81.4728C51.5801 81.6368 51.5918 81.7892 51.6152 81.9298C51.6621 82.0704 51.7324 82.2111 51.8262 82.3517C51.9199 82.4923 51.9668 82.6212 51.9668 82.7384C51.9668 82.9025 51.8965 83.0548 51.7559 83.1954C51.9199 83.3126 52.1074 83.4415 52.3184 83.5822C52.5293 83.7228 52.7168 83.8751 52.8809 84.0392C53.0684 84.2267 53.2207 84.4142 53.3379 84.6017C53.4551 84.8126 53.5137 85.0353 53.5137 85.2697C53.5137 85.6681 53.3848 85.9493 53.127 86.1134C52.8691 86.2775 52.5527 86.4064 52.1777 86.5001C51.8262 86.5939 51.4512 86.6759 51.0527 86.7462C50.6777 86.84 50.3613 86.9923 50.1035 87.2032H49.998C49.7168 87.2032 49.5059 87.1212 49.3652 86.9572C49.2246 86.7931 49.0137 86.7111 48.7324 86.7111C48.2871 85.9845 47.9824 85.1642 47.8184 84.2501C47.6543 83.3595 47.5723 82.504 47.5723 81.6837C47.5723 80.6759 47.666 79.6681 47.8535 78.6603C48.0176 77.6525 48.2285 76.6564 48.4863 75.672C48.7207 74.6876 48.9785 73.715 49.2598 72.754C49.5645 71.7697 49.8457 70.7853 50.1035 69.8009L50.1387 69.6954C50.1387 69.5782 50.1035 69.4962 50.0332 69.4493C49.9863 69.4025 49.9629 69.3322 49.9629 69.2384C49.9629 69.1915 49.9746 69.1681 49.998 69.1681C50.0684 68.9337 50.1387 68.7111 50.209 68.5001C50.3027 68.2892 50.373 68.0548 50.4199 67.797C50.5605 67.1407 50.6543 66.4728 50.7012 65.7931C50.7715 65.09 50.8066 64.3986 50.8066 63.7189C50.8301 63.0392 50.8535 62.3595 50.877 61.6798C50.9238 60.9767 51.0059 60.2853 51.123 59.6056C51.3105 59.4181 51.4863 59.2189 51.6504 59.0079C51.8145 58.797 52.0254 58.6095 52.2832 58.4454C52.752 58.4689 53.2207 58.5392 53.6895 58.6564C54.1582 58.7736 54.6035 58.9611 55.0254 59.2189C55.3066 60.2267 55.4941 61.2345 55.5879 62.2423C55.7051 63.2501 55.8926 64.2579 56.1504 65.2657V65.3712C56.1504 65.4884 56.209 65.547 56.3262 65.547C56.4668 65.5236 56.5723 65.5587 56.6426 65.6525C56.5957 65.7228 56.5605 65.8048 56.5371 65.8986C56.5371 65.9923 56.5371 66.0861 56.5371 66.1798V66.7775C56.584 66.965 56.6426 67.1642 56.7129 67.3751C56.7832 67.5861 56.9355 67.715 57.1699 67.7618C57.2871 68.5118 57.4629 69.2032 57.6973 69.8361C57.9316 70.4689 58.2012 71.0782 58.5059 71.6642C58.8105 72.2501 59.1387 72.8361 59.4902 73.422C59.8418 73.9845 60.2051 74.5822 60.5801 75.215C61.166 75.6603 61.6699 76.1759 62.0918 76.7618C62.5137 77.3243 62.9355 77.8751 63.3574 78.4142C63.8027 78.9298 64.2949 79.3868 64.834 79.7853C65.3965 80.1837 66.123 80.4298 67.0137 80.5236C67.1309 80.4298 67.2129 80.3009 67.2598 80.1368L67.4355 79.6447C67.5059 79.4806 67.5762 79.34 67.6465 79.2228C67.7402 79.0822 67.8691 78.9767 68.0332 78.9064C68.0801 78.2501 68.127 77.5822 68.1738 76.9025C68.2441 76.2228 68.3965 75.5782 68.6309 74.9689C68.5137 74.7579 68.4551 74.5001 68.4551 74.1954C68.4551 73.9611 68.4668 73.7384 68.4902 73.5275C68.5371 73.3165 68.5605 73.1056 68.5605 72.8947C68.5605 72.4493 68.4668 72.0861 68.2793 71.8048C68.2793 71.6407 68.291 71.4767 68.3145 71.3126C68.3379 71.1251 68.4082 70.9493 68.5254 70.7853C68.3379 70.3165 68.1855 69.8243 68.0684 69.3087C67.9746 68.7931 67.9277 68.2657 67.9277 67.7267C67.9277 67.422 67.9629 67.1056 68.0332 66.7775C67.8926 66.4259 67.7988 66.0157 67.752 65.547L67.6113 64.1056C67.5645 63.6134 67.4941 63.1564 67.4004 62.7345C67.3066 62.3126 67.1309 61.9728 66.873 61.715C67.0137 61.504 67.084 61.2579 67.084 60.9767C67.084 60.5079 67.0137 60.0626 66.873 59.6407C66.7324 59.2189 66.6621 58.7736 66.6621 58.3048C66.6621 57.9767 66.7324 57.6486 66.873 57.3204C67.3887 57.3439 67.8926 57.4025 68.3848 57.4962C68.9004 57.5665 69.4043 57.6017 69.8965 57.6017C70.0371 57.7892 70.2012 57.9415 70.3887 58.0587C70.5762 58.1759 70.7754 58.2931 70.9863 58.4103C71.1973 58.504 71.3965 58.6095 71.584 58.7267C71.7949 58.8439 71.959 59.0079 72.0762 59.2189ZM117.814 62.7697C117.814 63.0978 117.803 63.4259 117.779 63.754C117.756 64.0822 117.721 64.4103 117.674 64.7384C117.51 64.9728 117.346 65.1837 117.182 65.3712C117.041 65.5353 116.947 65.7462 116.9 66.004C116.643 66.1915 116.35 66.4493 116.021 66.7775C115.717 67.1056 115.588 67.4337 115.635 67.7618H115.143C114.861 68.1837 114.533 68.547 114.158 68.8517C113.783 69.1564 113.385 69.4493 112.963 69.7306L111.732 70.5392C111.334 70.797 110.959 71.1017 110.607 71.4532C110.42 71.4767 110.268 71.5118 110.15 71.5587C110.033 71.6056 109.881 71.6173 109.693 71.5939C108.967 72.0626 108.205 72.4728 107.408 72.8243C106.635 73.1759 105.85 73.5275 105.053 73.879C104.279 74.2072 103.506 74.5587 102.732 74.9337C101.959 75.3087 101.221 75.7423 100.518 76.2345C100.447 76.2111 100.354 76.1993 100.236 76.1993C100.025 76.1993 99.8145 76.2345 99.6035 76.3048C99.3926 76.3517 99.1816 76.3751 98.9707 76.3751C98.877 76.3751 98.748 76.3634 98.584 76.34C98.4434 76.3165 98.3379 76.2814 98.2676 76.2345C98.1504 76.1642 98.0449 76.0587 97.9512 75.9181C97.8574 75.7775 97.7871 75.6251 97.7402 75.4611C97.6934 75.2736 97.6582 75.0978 97.6348 74.9337C97.6113 74.7697 97.5996 74.629 97.5996 74.5118C97.5996 74.3712 97.6113 74.2189 97.6348 74.0548C97.6582 73.8907 97.6934 73.7384 97.7402 73.5978C98.4199 73.5509 99.0996 73.3751 99.7793 73.0704C100.482 72.7657 101.15 72.4728 101.783 72.1915C101.947 72.1212 102.076 72.0392 102.17 71.9454C102.287 71.8282 102.404 71.7345 102.521 71.6642C102.639 71.5704 102.768 71.4884 102.908 71.4181C103.049 71.3478 103.225 71.3126 103.436 71.3126H103.541C105.018 70.6329 106.459 69.8947 107.865 69.0978C109.295 68.3009 110.713 67.4923 112.119 66.672C112.189 66.4611 112.295 66.2501 112.436 66.0392C112.6 65.8282 112.752 65.629 112.893 65.4415C113.033 65.2306 113.162 65.0197 113.279 64.8087C113.396 64.5978 113.455 64.3868 113.455 64.1759C113.455 63.754 113.256 63.4025 112.857 63.1212H112.717C112.436 63.1212 112.189 63.0861 111.979 63.0157C111.768 62.922 111.568 62.84 111.381 62.7697C111.193 62.6759 110.982 62.6056 110.748 62.5587C110.514 62.4884 110.244 62.465 109.939 62.4884C109.822 62.3947 109.635 62.3126 109.377 62.2423C109.119 62.172 108.908 62.1368 108.744 62.1368C107.9 62.1368 107.068 62.1954 106.248 62.3126C105.428 62.4064 104.607 62.465 103.787 62.4884C103.576 62.6056 103.377 62.7111 103.189 62.8048C103.002 62.8986 102.779 62.9454 102.521 62.9454C102.404 62.9454 102.299 62.9454 102.205 62.9454C102.111 62.922 102.006 62.8986 101.889 62.8751C101.443 63.0626 100.939 63.2267 100.377 63.3673C99.8145 63.4845 99.252 63.6368 98.6895 63.8243C98.1504 63.9884 97.6465 64.1993 97.1777 64.4572C96.709 64.715 96.3457 65.0665 96.0879 65.5118C96.0879 65.629 96.1113 65.7345 96.1582 65.8282C96.2051 65.8986 96.2285 65.9923 96.2285 66.1095V66.2501C96.0879 66.3907 95.9941 66.5548 95.9473 66.7423C95.9004 66.9064 95.8652 67.0822 95.8418 67.2697C95.8184 67.4337 95.7832 67.6095 95.7363 67.797C95.7129 67.9611 95.6309 68.1251 95.4902 68.2892C95.584 68.6407 95.6309 69.0275 95.6309 69.4493C95.6309 69.9181 95.5957 70.3868 95.5254 70.8556C95.4785 71.3243 95.4551 71.7931 95.4551 72.2618C95.4551 72.7072 95.502 73.1056 95.5957 73.4572C95.4551 73.5978 95.3965 73.8087 95.4199 74.09C95.4434 74.3712 95.3848 74.5822 95.2441 74.7228C95.2441 74.9103 95.291 75.0392 95.3848 75.1095C95.502 75.1798 95.5723 75.297 95.5957 75.4611C95.502 75.8595 95.4551 76.2931 95.4551 76.7618C95.4551 77.4415 95.5254 78.1329 95.666 78.8361C95.8301 79.5392 96.0176 80.2306 96.2285 80.9103C96.6035 80.7931 97.002 80.6993 97.4238 80.629C97.8691 80.5353 98.291 80.4884 98.6895 80.4884C98.7598 80.4884 98.8301 80.5001 98.9004 80.5236C98.9707 80.5236 99.041 80.5236 99.1113 80.5236C99.1582 80.7814 99.252 81.0157 99.3926 81.2267C99.5332 81.4376 99.6621 81.672 99.7793 81.9298C99.6621 82.0939 99.5566 82.2228 99.4629 82.3165C99.3926 82.4337 99.3574 82.5861 99.3574 82.7736C99.0293 82.797 98.7598 82.879 98.5488 83.0197C98.3379 83.1837 98.1035 83.3595 97.8457 83.547H97.7051C97.3066 83.547 96.9785 83.6173 96.7207 83.7579C96.4629 83.922 96.1699 84.0978 95.8418 84.2853C95.5605 84.1681 95.2793 84.1095 94.998 84.1095C94.6934 84.1095 94.3887 84.1681 94.084 84.2853C93.709 84.1212 93.4043 83.8634 93.1699 83.5118C92.9355 83.1837 92.7363 82.8087 92.5723 82.3868C92.4082 81.9884 92.2559 81.5782 92.1152 81.1564C91.998 80.7345 91.8574 80.3478 91.6934 79.9962V79.4337C91.6934 78.8947 91.6465 78.379 91.5527 77.8868C91.4824 77.3712 91.4473 76.8439 91.4473 76.3048C91.4473 76.0939 91.459 75.8712 91.4824 75.6368C91.5293 75.4025 91.5996 75.1798 91.6934 74.9689C91.6465 74.7579 91.623 74.5587 91.623 74.3712V73.7032C91.623 73.0001 91.6465 72.297 91.6934 71.5939C91.7637 70.8907 91.7988 70.1876 91.7988 69.4845C91.7988 68.9689 91.7637 68.4415 91.6934 67.9025C91.5762 67.9493 91.4707 67.9962 91.377 68.0431C91.2832 68.09 91.1777 68.1134 91.0605 68.1134C90.9434 68.1134 90.8262 68.1017 90.709 68.0782C90.6152 68.0548 90.5215 68.0314 90.4277 68.0079C90.1934 67.797 90.0293 67.5392 89.9355 67.2345C89.8418 66.9298 89.7129 66.6486 89.5488 66.3907C89.5488 65.9454 89.6191 65.5822 89.7598 65.3009C89.877 64.9962 90.0293 64.7267 90.2168 64.4923C90.4043 64.2345 90.5918 63.9884 90.7793 63.754C90.9902 63.5197 91.166 63.2267 91.3066 62.8751H91.4473C91.8223 62.8751 92.1973 62.7579 92.5723 62.5236C92.9473 62.2657 93.3691 62.1368 93.8379 62.1368C94.002 61.9259 94.2246 61.7501 94.5059 61.6095C94.7871 61.4454 95.0801 61.3165 95.3848 61.2228C95.7129 61.129 96.0293 61.0704 96.334 61.047C96.6621 61.0001 96.9668 60.9767 97.248 60.9767C97.3418 60.8126 97.4824 60.7072 97.6699 60.6603C97.8574 60.59 98.0449 60.5314 98.2324 60.4845C98.4434 60.4142 98.6309 60.3556 98.7949 60.3087C98.9824 60.2384 99.1348 60.1212 99.252 59.9572C99.4395 60.004 99.6152 60.0275 99.7793 60.0275C100.084 60.0275 100.377 59.9923 100.658 59.922C100.939 59.8282 101.221 59.7345 101.502 59.6407C101.783 59.5236 102.064 59.4181 102.346 59.3243C102.65 59.2306 102.967 59.1837 103.295 59.1837C103.412 59.1837 103.529 59.1954 103.646 59.2189C103.764 59.2189 103.881 59.2189 103.998 59.2189C104.186 59.2189 104.291 59.1486 104.314 59.0079C104.361 58.8673 104.443 58.7618 104.561 58.6915C104.631 58.715 104.76 58.7267 104.947 58.7267C105.416 58.7267 105.873 58.6915 106.318 58.6212C106.764 58.5275 107.221 58.4806 107.689 58.4806C107.9 58.4806 108.111 58.4923 108.322 58.5157C108.533 58.5392 108.744 58.5978 108.955 58.6915C109.002 58.6212 109.049 58.5626 109.096 58.5157C109.143 58.4689 109.178 58.4103 109.201 58.34C110.35 58.4103 111.428 58.6447 112.436 59.0431C113.467 59.4415 114.533 59.7931 115.635 60.0978C115.775 60.3087 115.939 60.4962 116.127 60.6603L116.725 61.1525C116.936 61.3165 117.135 61.4806 117.322 61.6447C117.51 61.8087 117.674 62.0079 117.814 62.2423V62.7697ZM163.939 76.1993C163.893 76.5509 163.764 76.8204 163.553 77.0079C163.365 77.1954 163.143 77.3712 162.885 77.5353C162.768 77.5118 162.65 77.5001 162.533 77.5001C162.439 77.4767 162.334 77.465 162.217 77.465C161.49 77.4415 160.799 77.5353 160.143 77.7462C159.51 77.9572 158.854 78.1095 158.174 78.2032C157.939 78.2501 157.717 78.2736 157.506 78.2736C157.318 78.2501 157.119 78.2618 156.908 78.3087C156.158 78.4259 155.361 78.5197 154.518 78.59C153.674 78.6603 152.83 78.754 151.986 78.8712C151.143 78.965 150.311 79.0939 149.49 79.2579C148.693 79.3986 147.943 79.6095 147.24 79.8907C147.17 79.8439 147.1 79.797 147.029 79.7501C146.959 79.6798 146.877 79.6447 146.783 79.6447C146.549 79.6447 146.326 79.6798 146.115 79.7501C145.904 79.8204 145.693 79.8439 145.482 79.8204C145.248 79.9611 144.99 80.0665 144.709 80.1368C144.451 80.1837 144.182 80.2306 143.9 80.2775C143.643 80.3009 143.385 80.3478 143.127 80.4181C142.869 80.4884 142.623 80.6173 142.389 80.8048C142.201 80.7111 141.967 80.6642 141.686 80.6642C141.428 80.6407 141.252 80.547 141.158 80.3829C140.619 80.6407 140.045 80.8048 139.436 80.8751C138.85 80.9454 138.252 80.9689 137.643 80.9454C137.244 80.922 136.787 80.8634 136.271 80.7697C135.756 80.6759 135.24 80.547 134.725 80.3829C134.209 80.1954 133.729 79.9845 133.283 79.7501C132.838 79.4923 132.498 79.1876 132.264 78.8361C132.1 78.6017 131.982 78.3439 131.912 78.0626C131.842 77.7814 131.678 77.5704 131.42 77.4298C131.49 76.8907 131.572 76.3634 131.666 75.8478C131.76 75.3322 131.854 74.8048 131.947 74.2657C132.416 73.8673 132.861 73.4454 133.283 73.0001C133.705 72.5548 134.104 72.0861 134.479 71.5939C134.924 71.3829 135.334 71.1251 135.709 70.8204C136.107 70.5157 136.494 70.2111 136.869 69.9064C137.268 69.5782 137.654 69.2618 138.029 68.9572C138.428 68.6525 138.85 68.3829 139.295 68.1486C139.365 67.9845 139.459 67.8556 139.576 67.7618C139.717 67.6447 139.857 67.5392 139.998 67.4454C140.139 67.3282 140.268 67.2111 140.385 67.0939C140.502 66.9532 140.584 66.7892 140.631 66.6017C141.451 66.1095 142.166 65.4884 142.775 64.7384C143.385 63.9884 143.783 63.1447 143.971 62.2072C143.572 61.879 143.115 61.6681 142.6 61.5743C142.107 61.4572 141.592 61.3751 141.053 61.3282C140.584 61.3048 140.092 61.3048 139.576 61.3282C139.084 61.3517 138.58 61.34 138.064 61.2931C137.549 61.4572 137.01 61.5626 136.447 61.6095C135.908 61.6564 135.369 61.7032 134.83 61.7501C134.291 61.7736 133.752 61.8439 133.213 61.9611C132.697 62.0548 132.193 62.2423 131.701 62.5236C131.607 62.5236 131.514 62.5118 131.42 62.4884C131.35 62.465 131.268 62.4532 131.174 62.4532C130.424 62.4298 129.721 62.5822 129.064 62.9103C128.408 63.215 127.764 63.5197 127.131 63.8243C127.084 63.9181 127.061 63.9884 127.061 64.0353C127.061 64.1759 127.084 64.3165 127.131 64.4572C127.201 64.5743 127.236 64.7032 127.236 64.8439C127.213 64.8673 127.201 64.8907 127.201 64.9142C127.201 64.9376 127.189 64.9611 127.166 64.9845C127.143 65.1017 127.107 65.2072 127.061 65.3009C127.037 65.3947 127.002 65.5001 126.955 65.6173C126.697 66.3673 126.557 67.1056 126.533 67.8322C126.51 68.4415 126.51 69.0392 126.533 69.6251C126.557 70.2111 126.557 70.8087 126.533 71.4181C126.486 72.1681 126.369 72.8712 126.182 73.5275C126.299 74.09 126.404 74.6876 126.498 75.3204C126.592 75.9298 126.709 76.5392 126.85 77.1486C126.99 77.7579 127.154 78.3556 127.342 78.9415C127.553 79.504 127.822 80.0431 128.15 80.5587C128.127 80.6056 128.139 80.6407 128.186 80.6642C128.232 80.6876 128.279 80.6993 128.326 80.6993H128.607C128.725 80.6993 128.771 80.7462 128.748 80.84C128.795 80.9103 128.83 80.9806 128.854 81.0509C128.877 81.0978 128.924 81.1447 128.994 81.1915C129.041 81.2618 129.041 81.3556 128.994 81.4728C128.971 81.9415 128.854 82.3751 128.643 82.7736C128.432 83.172 128.303 83.6056 128.256 84.0743C127.975 84.1447 127.717 84.1798 127.482 84.1798C127.084 84.1564 126.732 84.0392 126.428 83.8282C126.123 83.6407 125.842 83.4064 125.584 83.1251C125.326 82.8439 125.08 82.5626 124.846 82.2814C124.611 81.9767 124.354 81.7189 124.072 81.5079C123.908 80.8517 123.744 80.1251 123.58 79.3282C123.439 78.5314 123.193 77.8517 122.842 77.2892C122.936 77.0782 122.982 76.8204 122.982 76.5157C123.006 76.047 122.959 75.59 122.842 75.1447C122.748 74.6759 122.725 74.2072 122.771 73.7384C122.771 73.4806 122.795 73.2228 122.842 72.965C122.912 72.7072 122.959 72.4493 122.982 72.1915C123.006 71.7931 122.959 71.4064 122.842 71.0314C122.748 70.6564 122.713 70.2697 122.736 69.8712C122.76 69.6837 122.795 69.5079 122.842 69.3439C122.912 69.1564 123.006 68.9923 123.123 68.8517C123.006 68.5704 122.971 68.3009 123.018 68.0431C123.041 67.6447 123.088 67.2697 123.158 66.9181C123.229 66.5665 123.275 66.215 123.299 65.8634C123.299 65.6759 123.287 65.5001 123.264 65.3361C123.24 65.1486 123.205 64.9728 123.158 64.8087L122.842 64.7032C122.701 64.7032 122.561 64.7384 122.42 64.8087C122.303 64.879 122.197 64.9611 122.104 65.0548C122.01 65.1486 121.928 65.2306 121.857 65.3009C121.787 65.3478 121.717 65.3712 121.646 65.3712C121.6 65.3712 121.541 65.3712 121.471 65.3712C121.424 65.3478 121.377 65.3361 121.33 65.3361C121.283 65.3361 121.189 65.3829 121.049 65.4767C120.932 65.5704 120.779 65.6759 120.592 65.7931C120.428 65.8868 120.264 65.9923 120.1 66.1095C119.936 66.2032 119.807 66.2618 119.713 66.2853C119.455 66.2384 119.244 66.1564 119.08 66.0392C118.939 65.8986 118.799 65.7697 118.658 65.6525C118.541 65.5118 118.412 65.3947 118.271 65.3009C118.131 65.1837 117.955 65.1368 117.744 65.1603C117.674 65.0197 117.639 64.8673 117.639 64.7032C117.615 64.5392 117.615 64.3751 117.639 64.2111V63.6486C117.803 63.3439 118.025 63.0978 118.307 62.9103C118.564 62.6993 118.846 62.5236 119.15 62.3829L120.064 61.9611C120.369 61.8204 120.65 61.6447 120.908 61.4337H121.225C121.646 61.4572 122.01 61.3751 122.314 61.1876C122.643 61.0001 122.947 60.7892 123.229 60.5548C123.51 60.297 123.791 60.0392 124.072 59.7814C124.377 59.5236 124.705 59.3243 125.057 59.1837C125.314 59.3009 125.584 59.4064 125.865 59.5001C126.146 59.5704 126.439 59.6173 126.744 59.6407C127.049 59.6407 127.365 59.5939 127.693 59.5001C128.021 59.4064 128.279 59.2306 128.467 58.9728C128.584 59.0197 128.678 59.0548 128.748 59.0782C128.842 59.0782 128.947 59.0782 129.064 59.0782C129.416 59.1017 129.768 59.0548 130.119 58.9376C130.471 58.797 130.811 58.6329 131.139 58.4454C131.607 58.4689 132.064 58.4454 132.51 58.3751C132.979 58.2814 133.436 58.1876 133.881 58.0939C134.35 58.0001 134.807 57.9181 135.252 57.8478C135.721 57.754 136.189 57.7189 136.658 57.7423C137.432 57.7657 138.193 57.6954 138.943 57.5314C139.693 57.3673 140.455 57.3087 141.229 57.3556C141.768 57.379 142.295 57.4259 142.811 57.4962C143.35 57.5431 143.889 57.5548 144.428 57.5314C144.732 57.672 145.002 57.8009 145.236 57.9181C145.494 58.0118 145.811 58.0353 146.186 57.9884C146.936 58.6212 147.615 59.3595 148.225 60.2032V60.8009C148.201 61.34 148.107 61.8673 147.943 62.3829C147.779 62.8986 147.58 63.4142 147.346 63.9298C147.135 64.422 146.9 64.9142 146.643 65.4064C146.385 65.8751 146.139 66.3439 145.904 66.8126C144.381 68.1954 142.857 69.5665 141.334 70.9259C139.811 72.2853 138.24 73.5978 136.623 74.8634C136.576 75.0978 136.506 75.3087 136.412 75.4962C136.342 75.6837 136.295 75.8829 136.271 76.0939C136.271 76.2111 136.283 76.3048 136.307 76.3751C136.471 76.422 136.611 76.5157 136.729 76.6564C136.869 76.7736 136.916 76.9376 136.869 77.1486H137.186C137.303 77.1486 137.361 77.1954 137.361 77.2892L137.924 77.3243C138.814 77.3712 139.705 77.3478 140.596 77.254C141.486 77.1603 142.377 77.0548 143.268 76.9376C144.182 76.8204 145.084 76.715 145.975 76.6212C146.865 76.504 147.756 76.4337 148.646 76.4103C148.857 76.34 149.08 76.2814 149.314 76.2345C149.549 76.1876 149.76 76.0939 149.947 75.9532H150.053C150.217 75.9532 150.334 76.0001 150.404 76.0939C150.498 76.1876 150.627 76.2462 150.791 76.2697C150.908 76.2697 151.025 76.2462 151.143 76.1993C151.283 76.1525 151.424 76.1173 151.564 76.0939C151.893 76.0001 152.232 75.9415 152.584 75.9181C152.959 75.8947 153.322 75.8595 153.674 75.8126C155.033 75.6954 156.381 75.6251 157.717 75.6017C159.053 75.5548 160.389 75.379 161.725 75.0743C161.842 75.2384 162.006 75.3556 162.217 75.4259C162.428 75.4728 162.65 75.5314 162.885 75.6017C163.119 75.6486 163.33 75.7072 163.518 75.7775C163.729 75.8478 163.869 75.9884 163.939 76.1993ZM176.209 61.9611C176.068 62.172 175.986 62.4064 175.963 62.6642C175.939 62.922 175.928 63.1564 175.928 63.3673C175.928 63.6486 175.928 63.9298 175.928 64.2111C175.951 64.4689 175.963 64.7267 175.963 64.9845V65.5118C175.916 65.6759 175.846 65.84 175.752 66.004C175.658 66.1681 175.588 66.3322 175.541 66.4962C175.213 67.3634 175.049 68.2306 175.049 69.0978V69.1681C174.932 69.4493 174.814 69.7072 174.697 69.9415C174.604 70.1759 174.51 70.4103 174.416 70.6447C174.322 70.8556 174.252 71.09 174.205 71.3478C174.158 71.5822 174.146 71.8634 174.17 72.1915C173.842 73.0118 173.408 73.7618 172.869 74.4415C172.33 75.0978 171.803 75.7775 171.287 76.4806C170.795 76.6681 170.338 76.9142 169.916 77.2189C169.518 77.5236 169.131 77.8634 168.756 78.2384C168.029 78.4728 167.314 78.7423 166.611 79.047C165.908 79.3517 165.275 79.7618 164.713 80.2775C164.268 80.3243 163.822 80.3947 163.377 80.4884C162.932 80.5822 162.498 80.7228 162.076 80.9103H161.654C161.443 80.9103 161.291 80.8634 161.197 80.7697C160.893 80.9337 160.576 81.0509 160.248 81.1212C159.92 81.1681 159.592 81.1915 159.264 81.1915C158.842 81.1915 158.42 81.1681 157.998 81.1212C157.6 81.0509 157.189 80.9806 156.768 80.9103C156.533 80.5822 156.205 80.3361 155.783 80.172C155.361 79.9845 154.986 79.8087 154.658 79.6447C153.979 78.7072 153.486 77.8048 153.182 76.9376C152.877 76.047 152.561 75.0509 152.232 73.9493C152.279 73.6212 152.361 73.3048 152.479 73.0001C152.596 72.672 152.643 72.3204 152.619 71.9454C153.041 70.7267 153.592 69.6251 154.271 68.6407C154.975 67.6329 155.771 66.672 156.662 65.7579C156.662 65.6173 156.686 65.5001 156.732 65.4064C156.803 65.3126 156.814 65.172 156.768 64.9845C156.791 65.0079 156.838 65.0197 156.908 65.0197C157.096 65.0197 157.213 64.9728 157.26 64.879C157.307 64.7618 157.318 64.6329 157.295 64.4923C158.139 63.9532 158.9 63.3322 159.58 62.629C160.283 61.9259 161.08 61.34 161.971 60.8712C162.041 60.6603 162.158 60.4845 162.322 60.3439C162.486 60.2032 162.615 60.0392 162.709 59.8517C163.459 59.6407 164.139 59.3243 164.748 58.9025C165.357 58.4806 166.002 58.1056 166.682 57.7775C167.057 57.5665 167.408 57.4259 167.736 57.3556C168.088 57.2618 168.463 57.1681 168.861 57.0743C169.002 57.0275 169.131 56.9923 169.248 56.9689C169.365 56.9454 169.494 56.9337 169.635 56.9337C170.057 56.9337 170.467 57.0157 170.865 57.1798C171.264 57.3204 171.674 57.3907 172.096 57.3907C172.213 57.3907 172.307 57.3907 172.377 57.3907C172.471 57.3673 172.564 57.3439 172.658 57.3204C173.057 57.8126 173.561 58.1876 174.17 58.4454C174.311 58.797 174.475 59.1017 174.662 59.3595C174.873 59.6173 175.084 59.8751 175.295 60.1329C175.506 60.3673 175.693 60.6368 175.857 60.9415C176.045 61.2228 176.162 61.5626 176.209 61.9611ZM172.693 63.7892C172.693 63.672 172.682 63.5665 172.658 63.4728C172.424 63.4025 172.201 63.3087 171.99 63.1915C171.779 63.0743 171.545 63.0157 171.287 63.0157C171.123 63.0157 170.959 63.0509 170.795 63.1212C170.771 62.9572 170.701 62.84 170.584 62.7697C170.49 62.6993 170.373 62.6407 170.232 62.5939C170.115 62.5236 169.986 62.4767 169.846 62.4532C169.729 62.4064 169.623 62.3361 169.529 62.2423C169.459 62.0548 169.377 61.8673 169.283 61.6798C169.213 61.4689 169.072 61.3165 168.861 61.2228C168.65 61.4337 168.404 61.6095 168.123 61.7501C167.842 61.8673 167.549 61.9845 167.244 62.1017C166.963 62.2189 166.682 62.3595 166.4 62.5236C166.143 62.6876 165.92 62.8868 165.732 63.1212H165.1C164.959 63.379 164.76 63.5782 164.502 63.7189C164.244 63.8361 164.021 64.0118 163.834 64.2462C163.459 64.4337 163.107 64.6681 162.779 64.9493C162.475 65.2072 162.17 65.4884 161.865 65.7931C161.561 66.0743 161.256 66.3673 160.951 66.672C160.67 66.9767 160.365 67.2579 160.037 67.5157C159.732 68.172 159.393 68.7462 159.018 69.2384C158.666 69.7072 158.326 70.1876 157.998 70.6798C157.693 71.172 157.424 71.7111 157.189 72.297C156.979 72.8595 156.873 73.5626 156.873 74.4064V74.7579C156.873 74.8751 156.885 74.9923 156.908 75.1095C157.213 75.4376 157.459 75.7892 157.646 76.1642C157.857 76.5392 158.197 76.8087 158.666 76.9728C159.135 77.1603 159.627 77.2423 160.143 77.2189C160.682 77.1954 161.197 77.254 161.689 77.3947C162.814 77.1837 163.893 76.8439 164.924 76.3751C165.979 75.8829 166.975 75.297 167.912 74.6173C168.053 74.5001 168.217 74.3829 168.404 74.2657C168.592 74.1251 168.744 73.9845 168.861 73.8439C168.979 73.7267 169.072 73.5978 169.143 73.4572C169.236 73.3165 169.33 73.1876 169.424 73.0704C169.611 72.7657 169.822 72.4611 170.057 72.1564C170.291 71.8517 170.537 71.5704 170.795 71.3126C170.912 70.797 171.064 70.3048 171.252 69.8361C171.439 69.3439 171.627 68.8634 171.814 68.3947C172.002 67.9259 172.154 67.4454 172.271 66.9532C172.412 66.4611 172.482 65.9454 172.482 65.4064C172.482 65.2892 172.471 65.1603 172.447 65.0197C172.447 64.879 172.436 64.7501 172.412 64.6329C172.6 64.3751 172.693 64.0939 172.693 63.7892ZM215.268 62.8751C215.197 63.0861 215.057 63.2384 214.846 63.3322C214.658 63.4025 214.459 63.4611 214.248 63.5079C214.037 63.5548 213.838 63.6368 213.65 63.754C213.486 63.8478 213.381 64.0118 213.334 64.2462L213.264 64.2814C213.17 64.2814 213.1 64.2579 213.053 64.2111C213.029 64.1407 213.006 64.0822 212.982 64.0353C212.959 63.965 212.924 63.9064 212.877 63.8595C212.854 63.7892 212.807 63.754 212.736 63.754C212.479 63.754 212.221 63.7775 211.963 63.8243C211.729 63.8712 211.494 63.8947 211.26 63.8947C210.908 63.8947 210.592 63.8478 210.311 63.754C210.146 63.8009 210.053 63.9064 210.029 64.0704C210.029 64.2345 209.959 64.34 209.818 64.3868C209.701 64.4337 209.561 64.4572 209.396 64.4572C209.232 64.4337 209.068 64.4454 208.904 64.4923L207.779 64.7736C207.404 64.8673 207.029 64.9142 206.654 64.9142C206.443 64.9142 206.291 64.9025 206.197 64.879C205.846 65.1603 205.447 65.3712 205.002 65.5118C204.557 65.629 204.088 65.7462 203.596 65.8634C203.127 65.9572 202.658 66.0861 202.189 66.2501C201.744 66.4142 201.346 66.672 200.994 67.0236C200.807 66.9767 200.643 66.9532 200.502 66.9532C200.197 66.9532 199.928 67.0236 199.693 67.1642C199.459 67.2814 199.213 67.3986 198.955 67.5157C198.838 67.5626 198.721 67.5861 198.604 67.5861C198.486 67.5861 198.357 67.6095 198.217 67.6564C198.076 67.7032 197.982 67.7853 197.936 67.9025C197.912 67.9962 197.842 68.09 197.725 68.1837C197.725 69.0275 197.807 69.8712 197.971 70.715C198.135 71.5353 198.217 72.3673 198.217 73.2111V73.3517C198.264 73.7501 198.393 74.1251 198.604 74.4767C198.814 74.8048 198.92 75.1447 198.92 75.4962C198.92 75.6134 198.896 75.7423 198.85 75.8829C199.459 76.0236 199.857 76.34 200.045 76.8322C200.256 77.3009 200.42 77.8165 200.537 78.379C200.678 78.9181 200.854 79.422 201.064 79.8907C201.299 80.3595 201.744 80.6525 202.4 80.7697C202.447 81.004 202.482 81.2501 202.506 81.5079C202.529 81.7423 202.541 81.9767 202.541 82.2111C202.541 82.5392 202.506 82.8556 202.436 83.1603C202.365 83.4884 202.225 83.7814 202.014 84.0392C201.662 84.0626 201.404 84.0743 201.24 84.0743C201.076 84.0743 200.83 84.1447 200.502 84.2853C200.033 84.004 199.611 83.6759 199.236 83.3009C198.885 82.9493 198.545 82.5743 198.217 82.1759C197.912 81.754 197.607 81.3322 197.303 80.9103C196.998 80.465 196.67 80.0431 196.318 79.6447C195.1 79.9493 193.846 80.1603 192.557 80.2775C191.291 80.3712 190.025 80.4181 188.76 80.4181C188.713 80.465 188.643 80.4884 188.549 80.4884C188.455 80.4884 188.361 80.5001 188.268 80.5236C188.197 80.5236 188.127 80.547 188.057 80.5939C188.01 80.6173 187.998 80.6759 188.021 80.7697C187.857 80.6759 187.67 80.6173 187.459 80.5939C187.271 80.547 187.096 80.5236 186.932 80.5236C186.814 80.5236 186.697 80.5353 186.58 80.5587C186.463 80.5587 186.346 80.5939 186.229 80.6642C185.338 80.5001 184.471 80.2775 183.627 79.9962C182.807 79.6915 181.963 79.4454 181.096 79.2579C181.096 79.0704 181.049 78.9415 180.955 78.8712C180.861 78.7775 180.779 78.6486 180.709 78.4845C179.725 77.8751 178.893 77.1368 178.213 76.2697C177.557 75.4025 177.287 74.3478 177.404 73.1056L177.158 72.6134C177.158 72.2384 177.24 71.9689 177.404 71.8048C177.311 71.6407 177.146 71.4767 176.912 71.3126C177.123 70.9845 177.311 70.6447 177.475 70.2931C177.639 69.9415 177.756 69.5665 177.826 69.1681C177.85 69.0509 177.861 68.9454 177.861 68.8517C177.861 68.7579 177.885 68.6525 177.932 68.5353C177.979 68.3947 178.049 68.2423 178.143 68.0782C178.213 67.8907 178.283 67.7267 178.354 67.5861C178.729 66.7892 179.139 66.0275 179.584 65.3009C180.053 64.5509 180.639 63.9064 181.342 63.3673C181.389 62.9689 181.506 62.6407 181.693 62.3829C181.881 62.1017 182.08 61.8556 182.291 61.6447C182.525 61.4103 182.748 61.1759 182.959 60.9415C183.193 60.7072 183.369 60.4259 183.486 60.0978C183.955 59.6993 184.424 59.3126 184.893 58.9376C185.385 58.5626 185.795 58.1173 186.123 57.6017C186.545 57.4611 186.943 57.2853 187.318 57.0743C187.693 56.84 188.01 56.547 188.268 56.1954C188.83 56.1486 189.381 56.0431 189.92 55.879C190.482 55.715 191.068 55.6329 191.678 55.6329C191.936 55.6329 192.24 55.6915 192.592 55.8087C192.967 55.9025 193.248 56.0782 193.436 56.3361C193.459 56.3829 193.471 56.4415 193.471 56.5118L193.506 56.6876C193.529 56.7345 193.553 56.7814 193.576 56.8282C193.623 56.8517 193.693 56.8517 193.787 56.8282C193.787 57.3439 193.729 57.8712 193.611 58.4103C193.494 58.9259 193.189 59.3243 192.697 59.6056C192.393 59.5118 192.064 59.465 191.713 59.465C191.244 59.465 190.811 59.5587 190.412 59.7462C190.037 59.9103 189.662 60.1095 189.287 60.3439C188.936 60.5548 188.572 60.7775 188.197 61.0118C187.822 61.2228 187.424 61.3751 187.002 61.4689C186.955 61.6564 186.908 61.8322 186.861 61.9962C186.838 62.1368 186.85 62.3009 186.896 62.4884C186.779 62.4884 186.686 62.4767 186.615 62.4532C186.568 62.4064 186.486 62.3829 186.369 62.3829C186.205 62.3829 186.088 62.4767 186.018 62.6642C185.971 62.8517 185.924 63.004 185.877 63.1212C185.432 63.3087 185.057 63.5782 184.752 63.9298C184.471 64.2579 184.201 64.6212 183.943 65.0197C183.709 65.3947 183.451 65.7579 183.17 66.1095C182.889 66.4611 182.537 66.7306 182.115 66.9181C181.928 67.6681 181.74 68.4064 181.553 69.1329C181.389 69.8595 181.189 70.5861 180.955 71.3126C181.025 71.5939 181.061 71.8868 181.061 72.1915C181.061 72.5665 181.025 72.9064 180.955 73.2111C181.072 73.3986 181.189 73.6212 181.307 73.879L181.729 74.6876C181.869 74.9689 182.01 75.2267 182.15 75.4611C182.314 75.6954 182.467 75.8712 182.607 75.9884C182.865 76.1759 183.264 76.3517 183.803 76.5157C184.342 76.6564 184.822 76.9025 185.244 77.254C185.291 77.254 185.35 77.254 185.42 77.254C185.49 77.2306 185.549 77.2189 185.596 77.2189C185.877 77.2189 186.182 77.2892 186.51 77.4298C186.838 77.5704 187.049 77.6407 187.143 77.6407C188.455 77.6407 189.885 77.5587 191.432 77.3947C192.979 77.2072 194.408 76.9845 195.721 76.7267C195.768 76.4923 195.791 76.2931 195.791 76.129C195.791 75.8243 195.744 75.5314 195.65 75.2501C195.557 74.9454 195.404 74.6876 195.193 74.4767C195.193 74.1251 195.193 73.7736 195.193 73.422C195.217 73.0704 195.229 72.7189 195.229 72.3673C195.229 71.7814 195.205 71.1603 195.158 70.504C195.111 69.8478 194.994 69.2384 194.807 68.6759H194.736C194.432 68.6759 194.15 68.7579 193.893 68.922C193.658 69.0626 193.412 69.1329 193.154 69.1329C193.014 69.1329 192.896 69.0978 192.803 69.0275C192.521 69.3556 192.182 69.6017 191.783 69.7657C191.385 69.9298 190.963 70.0822 190.518 70.2228C190.072 70.34 189.627 70.4689 189.182 70.6095C188.76 70.7501 188.373 70.9493 188.021 71.2072C187.834 71.1368 187.658 71.1017 187.494 71.1017C187.33 71.1017 187.166 71.1134 187.002 71.1368C186.861 71.1603 186.697 71.1837 186.51 71.2072C186.018 70.7853 185.771 70.2579 185.771 69.6251C185.771 69.297 185.818 68.9806 185.912 68.6759C186.029 68.3478 186.182 68.0431 186.369 67.7618C186.486 67.6915 186.627 67.6564 186.791 67.6564C186.955 67.6329 187.119 67.6095 187.283 67.5861C187.447 67.5392 187.576 67.4806 187.67 67.4103C187.787 67.34 187.857 67.2111 187.881 67.0236C187.951 67.0939 188.01 67.129 188.057 67.129C188.104 67.129 188.15 67.1173 188.197 67.0939C188.244 67.0704 188.291 67.0587 188.338 67.0587C188.385 67.0587 188.42 67.0822 188.443 67.129C188.49 67.1759 188.514 67.2228 188.514 67.2697C189.521 66.7306 190.553 66.2736 191.607 65.8986C192.662 65.5236 193.729 65.1837 194.807 64.879C195.908 64.5743 197.01 64.2931 198.111 64.0353C199.213 63.754 200.303 63.4493 201.381 63.1212C201.545 62.9806 201.721 62.8751 201.908 62.8048C202.096 62.7345 202.26 62.629 202.4 62.4884C202.564 62.5822 202.764 62.629 202.998 62.629C203.326 62.629 203.678 62.5704 204.053 62.4532C204.451 62.3126 204.779 62.1486 205.037 61.9611C205.131 61.9845 205.213 61.9962 205.283 61.9962H205.529C205.998 61.9962 206.432 61.9259 206.83 61.7853C207.252 61.6447 207.662 61.4572 208.061 61.2228H208.236C208.963 61.2228 209.678 61.1407 210.381 60.9767C211.107 60.8126 211.846 60.7306 212.596 60.7306C213.557 60.7306 214.4 60.9767 215.127 61.4689V61.8907C215.127 62.0782 215.127 62.254 215.127 62.4181C215.15 62.5587 215.197 62.7111 215.268 62.8751ZM250.072 76.1993C250.025 76.5509 249.896 76.8204 249.686 77.0079C249.498 77.1954 249.275 77.3712 249.018 77.5353C248.9 77.5118 248.783 77.5001 248.666 77.5001C248.572 77.4767 248.467 77.465 248.35 77.465C247.623 77.4415 246.932 77.5353 246.275 77.7462C245.643 77.9572 244.986 78.1095 244.307 78.2032C244.072 78.2501 243.85 78.2736 243.639 78.2736C243.451 78.2501 243.252 78.2618 243.041 78.3087C242.291 78.4259 241.494 78.5197 240.65 78.59C239.807 78.6603 238.963 78.754 238.119 78.8712C237.275 78.965 236.443 79.0939 235.623 79.2579C234.826 79.3986 234.076 79.6095 233.373 79.8907C233.303 79.8439 233.232 79.797 233.162 79.7501C233.092 79.6798 233.01 79.6447 232.916 79.6447C232.682 79.6447 232.459 79.6798 232.248 79.7501C232.037 79.8204 231.826 79.8439 231.615 79.8204C231.381 79.9611 231.123 80.0665 230.842 80.1368C230.584 80.1837 230.314 80.2306 230.033 80.2775C229.775 80.3009 229.518 80.3478 229.26 80.4181C229.002 80.4884 228.756 80.6173 228.521 80.8048C228.334 80.7111 228.1 80.6642 227.818 80.6642C227.561 80.6407 227.385 80.547 227.291 80.3829C226.752 80.6407 226.178 80.8048 225.568 80.8751C224.982 80.9454 224.385 80.9689 223.775 80.9454C223.377 80.922 222.92 80.8634 222.404 80.7697C221.889 80.6759 221.373 80.547 220.857 80.3829C220.342 80.1954 219.861 79.9845 219.416 79.7501C218.971 79.4923 218.631 79.1876 218.396 78.8361C218.232 78.6017 218.115 78.3439 218.045 78.0626C217.975 77.7814 217.811 77.5704 217.553 77.4298C217.623 76.8907 217.705 76.3634 217.799 75.8478C217.893 75.3322 217.986 74.8048 218.08 74.2657C218.549 73.8673 218.994 73.4454 219.416 73.0001C219.838 72.5548 220.236 72.0861 220.611 71.5939C221.057 71.3829 221.467 71.1251 221.842 70.8204C222.24 70.5157 222.627 70.2111 223.002 69.9064C223.4 69.5782 223.787 69.2618 224.162 68.9572C224.561 68.6525 224.982 68.3829 225.428 68.1486C225.498 67.9845 225.592 67.8556 225.709 67.7618C225.85 67.6447 225.99 67.5392 226.131 67.4454C226.271 67.3282 226.4 67.2111 226.518 67.0939C226.635 66.9532 226.717 66.7892 226.764 66.6017C227.584 66.1095 228.299 65.4884 228.908 64.7384C229.518 63.9884 229.916 63.1447 230.104 62.2072C229.705 61.879 229.248 61.6681 228.732 61.5743C228.24 61.4572 227.725 61.3751 227.186 61.3282C226.717 61.3048 226.225 61.3048 225.709 61.3282C225.217 61.3517 224.713 61.34 224.197 61.2931C223.682 61.4572 223.143 61.5626 222.58 61.6095C222.041 61.6564 221.502 61.7032 220.963 61.7501C220.424 61.7736 219.885 61.8439 219.346 61.9611C218.83 62.0548 218.326 62.2423 217.834 62.5236C217.74 62.5236 217.646 62.5118 217.553 62.4884C217.482 62.465 217.4 62.4532 217.307 62.4532C216.557 62.4298 215.854 62.5822 215.197 62.9103C214.541 63.215 213.896 63.5197 213.264 63.8243C213.217 63.9181 213.193 63.9884 213.193 64.0353C213.193 64.1759 213.217 64.3165 213.264 64.4572C213.334 64.5743 213.369 64.7032 213.369 64.8439C213.346 64.8673 213.334 64.8907 213.334 64.9142C213.334 64.9376 213.322 64.9611 213.299 64.9845C213.275 65.1017 213.24 65.2072 213.193 65.3009C213.17 65.3947 213.135 65.5001 213.088 65.6173C212.83 66.3673 212.689 67.1056 212.666 67.8322C212.643 68.4415 212.643 69.0392 212.666 69.6251C212.689 70.2111 212.689 70.8087 212.666 71.4181C212.619 72.1681 212.502 72.8712 212.314 73.5275C212.432 74.09 212.537 74.6876 212.631 75.3204C212.725 75.9298 212.842 76.5392 212.982 77.1486C213.123 77.7579 213.287 78.3556 213.475 78.9415C213.686 79.504 213.955 80.0431 214.283 80.5587C214.26 80.6056 214.271 80.6407 214.318 80.6642C214.365 80.6876 214.412 80.6993 214.459 80.6993H214.74C214.857 80.6993 214.904 80.7462 214.881 80.84C214.928 80.9103 214.963 80.9806 214.986 81.0509C215.01 81.0978 215.057 81.1447 215.127 81.1915C215.174 81.2618 215.174 81.3556 215.127 81.4728C215.104 81.9415 214.986 82.3751 214.775 82.7736C214.564 83.172 214.436 83.6056 214.389 84.0743C214.107 84.1447 213.85 84.1798 213.615 84.1798C213.217 84.1564 212.865 84.0392 212.561 83.8282C212.256 83.6407 211.975 83.4064 211.717 83.1251C211.459 82.8439 211.213 82.5626 210.979 82.2814C210.744 81.9767 210.486 81.7189 210.205 81.5079C210.041 80.8517 209.877 80.1251 209.713 79.3282C209.572 78.5314 209.326 77.8517 208.975 77.2892C209.068 77.0782 209.115 76.8204 209.115 76.5157C209.139 76.047 209.092 75.59 208.975 75.1447C208.881 74.6759 208.857 74.2072 208.904 73.7384C208.904 73.4806 208.928 73.2228 208.975 72.965C209.045 72.7072 209.092 72.4493 209.115 72.1915C209.139 71.7931 209.092 71.4064 208.975 71.0314C208.881 70.6564 208.846 70.2697 208.869 69.8712C208.893 69.6837 208.928 69.5079 208.975 69.3439C209.045 69.1564 209.139 68.9923 209.256 68.8517C209.139 68.5704 209.104 68.3009 209.15 68.0431C209.174 67.6447 209.221 67.2697 209.291 66.9181C209.361 66.5665 209.408 66.215 209.432 65.8634C209.432 65.6759 209.42 65.5001 209.396 65.3361C209.373 65.1486 209.338 64.9728 209.291 64.8087L208.975 64.7032C208.834 64.7032 208.693 64.7384 208.553 64.8087C208.436 64.879 208.33 64.9611 208.236 65.0548C208.143 65.1486 208.061 65.2306 207.99 65.3009C207.92 65.3478 207.85 65.3712 207.779 65.3712C207.732 65.3712 207.674 65.3712 207.604 65.3712C207.557 65.3478 207.51 65.3361 207.463 65.3361C207.416 65.3361 207.322 65.3829 207.182 65.4767C207.064 65.5704 206.912 65.6759 206.725 65.7931C206.561 65.8868 206.396 65.9923 206.232 66.1095C206.068 66.2032 205.939 66.2618 205.846 66.2853C205.588 66.2384 205.377 66.1564 205.213 66.0392C205.072 65.8986 204.932 65.7697 204.791 65.6525C204.674 65.5118 204.545 65.3947 204.404 65.3009C204.264 65.1837 204.088 65.1368 203.877 65.1603C203.807 65.0197 203.771 64.8673 203.771 64.7032C203.748 64.5392 203.748 64.3751 203.771 64.2111V63.6486C203.936 63.3439 204.158 63.0978 204.439 62.9103C204.697 62.6993 204.979 62.5236 205.283 62.3829L206.197 61.9611C206.502 61.8204 206.783 61.6447 207.041 61.4337H207.357C207.779 61.4572 208.143 61.3751 208.447 61.1876C208.775 61.0001 209.08 60.7892 209.361 60.5548C209.643 60.297 209.924 60.0392 210.205 59.7814C210.51 59.5236 210.838 59.3243 211.189 59.1837C211.447 59.3009 211.717 59.4064 211.998 59.5001C212.279 59.5704 212.572 59.6173 212.877 59.6407C213.182 59.6407 213.498 59.5939 213.826 59.5001C214.154 59.4064 214.412 59.2306 214.6 58.9728C214.717 59.0197 214.811 59.0548 214.881 59.0782C214.975 59.0782 215.08 59.0782 215.197 59.0782C215.549 59.1017 215.9 59.0548 216.252 58.9376C216.604 58.797 216.943 58.6329 217.271 58.4454C217.74 58.4689 218.197 58.4454 218.643 58.3751C219.111 58.2814 219.568 58.1876 220.014 58.0939C220.482 58.0001 220.939 57.9181 221.385 57.8478C221.854 57.754 222.322 57.7189 222.791 57.7423C223.564 57.7657 224.326 57.6954 225.076 57.5314C225.826 57.3673 226.588 57.3087 227.361 57.3556C227.9 57.379 228.428 57.4259 228.943 57.4962C229.482 57.5431 230.021 57.5548 230.561 57.5314C230.865 57.672 231.135 57.8009 231.369 57.9181C231.627 58.0118 231.943 58.0353 232.318 57.9884C233.068 58.6212 233.748 59.3595 234.357 60.2032V60.8009C234.334 61.34 234.24 61.8673 234.076 62.3829C233.912 62.8986 233.713 63.4142 233.479 63.9298C233.268 64.422 233.033 64.9142 232.775 65.4064C232.518 65.8751 232.271 66.3439 232.037 66.8126C230.514 68.1954 228.99 69.5665 227.467 70.9259C225.943 72.2853 224.373 73.5978 222.756 74.8634C222.709 75.0978 222.639 75.3087 222.545 75.4962C222.475 75.6837 222.428 75.8829 222.404 76.0939C222.404 76.2111 222.416 76.3048 222.439 76.3751C222.604 76.422 222.744 76.5157 222.861 76.6564C223.002 76.7736 223.049 76.9376 223.002 77.1486H223.318C223.436 77.1486 223.494 77.1954 223.494 77.2892L224.057 77.3243C224.947 77.3712 225.838 77.3478 226.729 77.254C227.619 77.1603 228.51 77.0548 229.4 76.9376C230.314 76.8204 231.217 76.715 232.107 76.6212C232.998 76.504 233.889 76.4337 234.779 76.4103C234.99 76.34 235.213 76.2814 235.447 76.2345C235.682 76.1876 235.893 76.0939 236.08 75.9532H236.186C236.35 75.9532 236.467 76.0001 236.537 76.0939C236.631 76.1876 236.76 76.2462 236.924 76.2697C237.041 76.2697 237.158 76.2462 237.275 76.1993C237.416 76.1525 237.557 76.1173 237.697 76.0939C238.025 76.0001 238.365 75.9415 238.717 75.9181C239.092 75.8947 239.455 75.8595 239.807 75.8126C241.166 75.6954 242.514 75.6251 243.85 75.6017C245.186 75.5548 246.521 75.379 247.857 75.0743C247.975 75.2384 248.139 75.3556 248.35 75.4259C248.561 75.4728 248.783 75.5314 249.018 75.6017C249.252 75.6486 249.463 75.7072 249.65 75.7775C249.861 75.8478 250.002 75.9884 250.072 76.1993ZM262.342 59.9572V60.0978C262.178 60.1447 262.096 60.2618 262.096 60.4493C261.838 60.5665 261.568 60.6603 261.287 60.7306C261.006 60.7775 260.736 60.8595 260.479 60.9767C260.221 60.9532 259.951 60.9415 259.67 60.9415C259.412 60.9181 259.154 60.9064 258.896 60.9064C258.193 60.9064 257.49 60.9298 256.787 60.9767C256.084 61.0236 255.381 61.0236 254.678 60.9767C254.35 61.1642 253.986 61.3165 253.588 61.4337C253.213 61.5275 252.85 61.5743 252.498 61.5743C252.217 61.5743 251.971 61.5392 251.76 61.4689C251.197 61.7501 250.576 61.9845 249.896 62.172C249.24 62.3595 248.572 62.547 247.893 62.7345C247.213 62.8986 246.557 63.0978 245.924 63.3322C245.314 63.5431 244.775 63.8478 244.307 64.2462C244.26 64.5743 244.225 64.9025 244.201 65.2306C244.178 65.5353 244.166 65.84 244.166 66.1447C244.166 66.4728 244.178 66.7775 244.201 67.0587C244.248 67.34 244.33 67.6212 244.447 67.9025C244.564 67.9493 244.693 67.9845 244.834 68.0079C244.998 68.0314 245.139 68.0431 245.256 68.0431C245.373 68.0431 245.49 68.0314 245.607 68.0079C245.725 67.9611 245.807 67.879 245.854 67.7618C246.205 67.715 246.557 67.7032 246.908 67.7267C247.26 67.7267 247.611 67.7267 247.963 67.7267C248.314 67.7267 248.654 67.715 248.982 67.6915C249.334 67.6681 249.674 67.6095 250.002 67.5157C250.377 67.422 250.74 67.3634 251.092 67.34C251.467 67.3165 251.83 67.2931 252.182 67.2697C252.533 67.2462 252.896 67.2111 253.271 67.1642C253.646 67.0939 254.033 66.965 254.432 66.7775C254.736 66.8947 255.041 66.9532 255.346 66.9532C255.674 66.9532 255.99 66.9767 256.295 67.0236C256.459 67.1407 256.588 67.2697 256.682 67.4103C256.799 67.5509 256.857 67.715 256.857 67.9025C256.857 68.2306 256.74 68.5587 256.506 68.8868C256.271 69.215 256.084 69.5197 255.943 69.8009H255.557C254.994 69.8009 254.443 69.8829 253.904 70.047C253.389 70.1876 252.861 70.3634 252.322 70.5743C251.807 70.7618 251.279 70.9376 250.74 71.1017C250.225 71.2423 249.686 71.3126 249.123 71.3126C249.029 71.3126 248.971 71.3712 248.947 71.4884C248.947 71.5822 248.924 71.6525 248.877 71.6993C248.76 71.6759 248.584 71.6642 248.35 71.6642C247.811 71.6642 247.295 71.7228 246.803 71.84C246.311 71.9572 245.807 72.0157 245.291 72.0157C245.15 72.0157 245.01 72.0157 244.869 72.0157C244.729 71.9923 244.588 71.9689 244.447 71.9454C244.33 72.1329 244.178 72.2618 243.99 72.3322C243.803 72.379 243.627 72.4728 243.463 72.6134C243.393 72.8243 243.346 73.0822 243.322 73.3868C243.322 73.6915 243.311 74.0079 243.287 74.3361C243.287 74.6407 243.264 74.9337 243.217 75.215C243.17 75.4962 243.076 75.7189 242.936 75.8829C242.959 76.0001 243.053 76.047 243.217 76.0236C243.381 75.9767 243.463 76.047 243.463 76.2345C243.463 76.4454 243.439 76.6681 243.393 76.9025C243.346 77.1368 243.322 77.3712 243.322 77.6056C243.322 78.0509 243.369 78.5431 243.463 79.0822C243.58 79.5978 243.744 80.0782 243.955 80.5236C244.189 80.9689 244.494 81.3439 244.869 81.6486C245.244 81.9298 245.713 82.0704 246.275 82.0704C246.65 82.0704 247.002 82.0001 247.33 81.8595C247.658 81.7189 247.928 81.4845 248.139 81.1564L248.314 81.1212C248.408 81.1212 248.49 81.1329 248.561 81.1564C248.654 81.1798 248.748 81.1915 248.842 81.1915C248.982 81.1915 249.158 81.1095 249.369 80.9454C249.604 80.7579 249.85 80.547 250.107 80.3126C250.389 80.0782 250.67 79.8556 250.951 79.6447C251.232 79.4103 251.502 79.2462 251.76 79.1525C251.924 78.8243 252.076 78.4962 252.217 78.1681C252.381 77.84 252.615 77.5822 252.92 77.3947V76.3751C253.154 76.1173 253.4 75.8829 253.658 75.672C253.939 75.4611 254.15 75.1915 254.291 74.8634C254.408 74.9103 254.514 74.9454 254.607 74.9689C254.725 74.9923 254.842 75.004 254.959 75.004C255.076 75.004 255.193 74.9923 255.311 74.9689C255.451 74.9454 255.58 74.9103 255.697 74.8634C255.885 75.1212 256.025 75.4142 256.119 75.7423C256.236 76.047 256.377 76.34 256.541 76.6212C256.33 77.0431 256.084 77.547 255.803 78.1329C255.521 78.7189 255.217 79.3048 254.889 79.8907C254.561 80.4767 254.209 81.0392 253.834 81.5782C253.482 82.0939 253.131 82.4923 252.779 82.7736C252.709 82.8439 252.557 82.9259 252.322 83.0197C252.064 83.2072 251.83 83.3829 251.619 83.547C251.408 83.7345 251.209 83.9454 251.021 84.1798C250.342 84.3907 249.686 84.672 249.053 85.0236C248.443 85.3751 247.834 85.715 247.225 86.0431C246.943 85.9728 246.639 85.9376 246.311 85.9376C246.029 85.9376 245.748 85.9493 245.467 85.9728C245.186 86.0197 244.881 86.0431 244.553 86.0431C244.459 85.9259 244.318 85.8439 244.131 85.797C243.967 85.7736 243.908 85.6564 243.955 85.4454C243.158 85.3986 242.514 85.1759 242.021 84.7775C241.529 84.4025 241.107 83.9337 240.756 83.3712C240.428 82.8087 240.158 82.1993 239.947 81.5431C239.736 80.8868 239.514 80.254 239.279 79.6447V79.5392C239.279 79.422 239.326 79.3517 239.42 79.3282C239.514 79.3048 239.561 79.2345 239.561 79.1173C239.561 79.0704 239.549 79.0353 239.525 79.0118C239.455 78.754 239.396 78.5314 239.35 78.3439C239.303 78.1564 239.279 77.9337 239.279 77.6759C239.279 77.3009 239.303 76.9376 239.35 76.5861C239.396 76.2111 239.42 75.8361 239.42 75.4611C239.42 75.0861 239.373 74.7579 239.279 74.4767C239.373 74.3595 239.455 74.2072 239.525 74.0197C239.572 73.8087 239.607 73.5978 239.631 73.3868C239.654 73.1759 239.666 72.965 239.666 72.754C239.689 72.5431 239.725 72.3556 239.771 72.1915C239.678 71.9337 239.596 71.7111 239.525 71.5236C239.455 71.3126 239.42 71.0665 239.42 70.7853V70.5392C239.654 70.1407 239.854 69.7306 240.018 69.3087C240.182 68.8868 240.357 68.4532 240.545 68.0079V67.9025C240.545 67.2228 240.521 66.5431 240.475 65.8634C240.428 65.1837 240.404 64.504 240.404 63.8243V63.1564C240.404 62.922 240.416 62.6993 240.439 62.4884C240.627 62.3947 240.768 62.2657 240.861 62.1017C240.955 61.9376 241.096 61.8087 241.283 61.715H242.443L242.654 61.3634C242.725 61.2462 242.771 61.1173 242.795 60.9767C243.053 60.9064 243.299 60.8126 243.533 60.6954C243.791 60.5548 244.025 60.4142 244.236 60.2736C244.564 60.0861 244.857 59.922 245.115 59.7814C245.396 59.6173 245.666 59.4884 245.924 59.3947C246.205 59.2775 246.498 59.1837 246.803 59.1134C247.107 59.0431 247.459 58.9845 247.857 58.9376C248.045 58.9376 248.162 58.9025 248.209 58.8322C248.279 58.7618 248.373 58.6798 248.49 58.5861C248.771 58.6329 249.053 58.6798 249.334 58.7267C249.615 58.7501 249.896 58.7618 250.178 58.7618C250.74 58.7618 251.268 58.6564 251.76 58.4454C252.463 58.4454 253.154 58.4337 253.834 58.4103C254.537 58.3868 255.24 58.3751 255.943 58.3751C256.553 58.3751 257.162 58.3986 257.771 58.4454C258.381 58.4923 258.979 58.5743 259.564 58.6915C259.775 58.6212 260.01 58.5861 260.268 58.5861C260.549 58.5861 260.83 58.6212 261.111 58.6915C261.416 58.7384 261.709 58.7384 261.99 58.6915C262.014 58.9493 262.072 59.172 262.166 59.3595C262.283 59.5236 262.342 59.7228 262.342 59.9572ZM279.252 77.8868C279.252 78.2853 279.146 78.6368 278.936 78.9415C278.748 79.2228 278.678 79.5743 278.725 79.9962C278.396 80.1837 278.127 80.4298 277.916 80.7345C277.705 81.0392 277.506 81.3556 277.318 81.6837C275.771 82.6915 274.107 83.5001 272.326 84.1095C270.568 84.7423 268.752 85.0587 266.877 85.0587C266.76 85.0587 266.654 85.0001 266.561 84.8829C266.467 84.7892 266.373 84.6837 266.279 84.5665C266.186 84.4493 266.08 84.3322 265.963 84.215C265.869 84.1212 265.752 84.0743 265.611 84.0743C265.447 84.0743 265.318 84.1095 265.225 84.1798C265.225 84.1329 265.225 84.0861 265.225 84.0392C265.248 84.0157 265.26 83.9806 265.26 83.9337C265.26 83.6525 265.225 83.3595 265.154 83.0548C265.084 82.7736 265.049 82.4923 265.049 82.2111C265.049 81.8829 265.107 81.6134 265.225 81.4025H265.646C265.881 81.4025 266.104 81.3907 266.314 81.3673C266.549 81.3204 266.795 81.297 267.053 81.297C267.311 81.297 267.545 81.3673 267.756 81.5079C269.045 81.4611 270.264 81.2267 271.412 80.8048C272.584 80.3595 273.768 79.9259 274.963 79.504C275.15 79.2462 275.256 78.965 275.279 78.6603C275.326 78.3322 275.42 78.0275 275.561 77.7462C274.951 77.2306 274.33 76.8322 273.697 76.5509C273.088 76.2462 272.373 76.1407 271.553 76.2345C271.061 75.9298 270.533 75.754 269.971 75.7072C269.432 75.6603 268.881 75.59 268.318 75.4962C268.178 75.4728 268.025 75.4493 267.861 75.4259C267.721 75.379 267.568 75.3556 267.404 75.3556C267.287 75.3556 267.17 75.3907 267.053 75.4611C266.959 75.5079 266.936 75.59 266.982 75.7072C266.865 75.5197 266.701 75.4142 266.49 75.3907C266.303 75.3439 266.139 75.2501 265.998 75.1095C265.248 75.0626 264.592 74.9337 264.029 74.7228C263.467 74.4884 262.846 74.2306 262.166 73.9493C261.979 73.879 261.791 73.8322 261.604 73.8087C261.439 73.7618 261.275 73.6915 261.111 73.5978C260.689 73.3868 260.35 73.1056 260.092 72.754C259.834 72.4025 259.635 72.0157 259.494 71.5939C259.33 71.1486 259.213 70.6915 259.143 70.2228C259.072 69.754 259.002 69.3204 258.932 68.922C259.143 68.547 259.342 68.1603 259.529 67.7618C259.693 67.3634 259.834 66.9415 259.951 66.4962C260.092 66.4259 260.232 66.3673 260.373 66.3204C260.514 66.2736 260.666 66.215 260.83 66.1447C260.807 66.0978 260.795 66.0392 260.795 65.9689C260.795 65.8517 260.83 65.7345 260.9 65.6173C260.994 65.5001 261.018 65.3829 260.971 65.2657C261.486 64.797 261.979 64.3165 262.447 63.8243C262.939 63.3087 263.361 62.7462 263.713 62.1368C264.064 62.0197 264.346 61.8439 264.557 61.6095C264.768 61.3751 264.979 61.1407 265.189 60.9064C265.4 60.6486 265.635 60.4259 265.893 60.2384C266.15 60.0275 266.479 59.8986 266.877 59.8517C266.971 59.6876 267.1 59.5587 267.264 59.465C267.428 59.3478 267.592 59.2423 267.756 59.1486C267.92 59.0548 268.072 58.9493 268.213 58.8322C268.354 58.715 268.459 58.5509 268.529 58.34C268.904 58.34 269.244 58.2697 269.549 58.129C269.877 57.9884 270.193 57.8361 270.498 57.672C270.803 57.5079 271.107 57.3556 271.412 57.215C271.74 57.0743 272.092 57.004 272.467 57.004C272.561 57.004 272.654 57.0157 272.748 57.0392C272.842 57.0392 272.947 57.0509 273.064 57.0743C273.229 57.2384 273.334 57.4376 273.381 57.672C273.451 57.8829 273.498 58.1173 273.521 58.3751C273.545 58.6329 273.557 58.8907 273.557 59.1486C273.58 59.4064 273.627 59.6407 273.697 59.8517C273.486 60.2501 273.252 60.6486 272.994 61.047C272.76 61.4454 272.443 61.7501 272.045 61.9611H271.975C271.811 61.9845 271.658 61.9493 271.518 61.8556C271.377 61.7618 271.213 61.715 271.025 61.715C270.908 61.715 270.814 61.7501 270.744 61.8204L270.568 61.9962C270.521 62.0431 270.451 62.09 270.357 62.1368C270.287 62.1837 270.182 62.1837 270.041 62.1368C269.713 62.254 269.584 62.4532 269.654 62.7345C269.209 62.7814 268.834 62.922 268.529 63.1564C268.225 63.3673 267.943 63.6134 267.686 63.8947C267.428 64.1525 267.17 64.3986 266.912 64.6329C266.654 64.8439 266.35 64.9611 265.998 64.9845C265.6 65.6876 265.107 66.3087 264.521 66.8478C263.959 67.3868 263.49 67.9962 263.115 68.6759C263.186 68.8634 263.232 69.0626 263.256 69.2736C263.279 69.4845 263.314 69.7072 263.361 69.9415C263.572 70.2228 263.818 70.4689 264.1 70.6798C264.404 70.8907 264.697 71.1017 264.979 71.3126H265.084C265.553 71.3126 265.986 71.4064 266.385 71.5939C266.783 71.7579 267.205 71.84 267.65 71.84C267.885 71.84 268.084 71.7931 268.248 71.6993C268.857 71.84 269.455 71.9572 270.041 72.0509C270.65 72.1447 271.26 72.215 271.869 72.2618C272.174 72.3087 272.479 72.3322 272.783 72.3322C273.111 72.3322 273.416 72.3673 273.697 72.4376C273.955 72.5079 274.213 72.6017 274.471 72.7189C274.729 72.8126 274.986 72.9181 275.244 73.0353C275.783 73.2697 276.287 73.5275 276.756 73.8087C277.248 74.09 277.682 74.4298 278.057 74.8282C278.432 75.2032 278.725 75.6486 278.936 76.1642C279.146 76.6564 279.252 77.2306 279.252 77.8868ZM299.924 77.8868C299.924 78.2853 299.818 78.6368 299.607 78.9415C299.42 79.2228 299.35 79.5743 299.396 79.9962C299.068 80.1837 298.799 80.4298 298.588 80.7345C298.377 81.0392 298.178 81.3556 297.99 81.6837C296.443 82.6915 294.779 83.5001 292.998 84.1095C291.24 84.7423 289.424 85.0587 287.549 85.0587C287.432 85.0587 287.326 85.0001 287.232 84.8829C287.139 84.7892 287.045 84.6837 286.951 84.5665C286.857 84.4493 286.752 84.3322 286.635 84.215C286.541 84.1212 286.424 84.0743 286.283 84.0743C286.119 84.0743 285.99 84.1095 285.896 84.1798C285.896 84.1329 285.896 84.0861 285.896 84.0392C285.92 84.0157 285.932 83.9806 285.932 83.9337C285.932 83.6525 285.896 83.3595 285.826 83.0548C285.756 82.7736 285.721 82.4923 285.721 82.2111C285.721 81.8829 285.779 81.6134 285.896 81.4025H286.318C286.553 81.4025 286.775 81.3907 286.986 81.3673C287.221 81.3204 287.467 81.297 287.725 81.297C287.982 81.297 288.217 81.3673 288.428 81.5079C289.717 81.4611 290.936 81.2267 292.084 80.8048C293.256 80.3595 294.439 79.9259 295.635 79.504C295.822 79.2462 295.928 78.965 295.951 78.6603C295.998 78.3322 296.092 78.0275 296.232 77.7462C295.623 77.2306 295.002 76.8322 294.369 76.5509C293.76 76.2462 293.045 76.1407 292.225 76.2345C291.732 75.9298 291.205 75.754 290.643 75.7072C290.104 75.6603 289.553 75.59 288.99 75.4962C288.85 75.4728 288.697 75.4493 288.533 75.4259C288.393 75.379 288.24 75.3556 288.076 75.3556C287.959 75.3556 287.842 75.3907 287.725 75.4611C287.631 75.5079 287.607 75.59 287.654 75.7072C287.537 75.5197 287.373 75.4142 287.162 75.3907C286.975 75.3439 286.811 75.2501 286.67 75.1095C285.92 75.0626 285.264 74.9337 284.701 74.7228C284.139 74.4884 283.518 74.2306 282.838 73.9493C282.65 73.879 282.463 73.8322 282.275 73.8087C282.111 73.7618 281.947 73.6915 281.783 73.5978C281.361 73.3868 281.021 73.1056 280.764 72.754C280.506 72.4025 280.307 72.0157 280.166 71.5939C280.002 71.1486 279.885 70.6915 279.814 70.2228C279.744 69.754 279.674 69.3204 279.604 68.922C279.814 68.547 280.014 68.1603 280.201 67.7618C280.365 67.3634 280.506 66.9415 280.623 66.4962C280.764 66.4259 280.904 66.3673 281.045 66.3204C281.186 66.2736 281.338 66.215 281.502 66.1447C281.479 66.0978 281.467 66.0392 281.467 65.9689C281.467 65.8517 281.502 65.7345 281.572 65.6173C281.666 65.5001 281.689 65.3829 281.643 65.2657C282.158 64.797 282.65 64.3165 283.119 63.8243C283.611 63.3087 284.033 62.7462 284.385 62.1368C284.736 62.0197 285.018 61.8439 285.229 61.6095C285.439 61.3751 285.65 61.1407 285.861 60.9064C286.072 60.6486 286.307 60.4259 286.564 60.2384C286.822 60.0275 287.15 59.8986 287.549 59.8517C287.643 59.6876 287.771 59.5587 287.936 59.465C288.1 59.3478 288.264 59.2423 288.428 59.1486C288.592 59.0548 288.744 58.9493 288.885 58.8322C289.025 58.715 289.131 58.5509 289.201 58.34C289.576 58.34 289.916 58.2697 290.221 58.129C290.549 57.9884 290.865 57.8361 291.17 57.672C291.475 57.5079 291.779 57.3556 292.084 57.215C292.412 57.0743 292.764 57.004 293.139 57.004C293.232 57.004 293.326 57.0157 293.42 57.0392C293.514 57.0392 293.619 57.0509 293.736 57.0743C293.9 57.2384 294.006 57.4376 294.053 57.672C294.123 57.8829 294.17 58.1173 294.193 58.3751C294.217 58.6329 294.229 58.8907 294.229 59.1486C294.252 59.4064 294.299 59.6407 294.369 59.8517C294.158 60.2501 293.924 60.6486 293.666 61.047C293.432 61.4454 293.115 61.7501 292.717 61.9611H292.646C292.482 61.9845 292.33 61.9493 292.189 61.8556C292.049 61.7618 291.885 61.715 291.697 61.715C291.58 61.715 291.486 61.7501 291.416 61.8204L291.24 61.9962C291.193 62.0431 291.123 62.09 291.029 62.1368C290.959 62.1837 290.854 62.1837 290.713 62.1368C290.385 62.254 290.256 62.4532 290.326 62.7345C289.881 62.7814 289.506 62.922 289.201 63.1564C288.896 63.3673 288.615 63.6134 288.357 63.8947C288.1 64.1525 287.842 64.3986 287.584 64.6329C287.326 64.8439 287.021 64.9611 286.67 64.9845C286.271 65.6876 285.779 66.3087 285.193 66.8478C284.631 67.3868 284.162 67.9962 283.787 68.6759C283.857 68.8634 283.904 69.0626 283.928 69.2736C283.951 69.4845 283.986 69.7072 284.033 69.9415C284.244 70.2228 284.49 70.4689 284.771 70.6798C285.076 70.8907 285.369 71.1017 285.65 71.3126H285.756C286.225 71.3126 286.658 71.4064 287.057 71.5939C287.455 71.7579 287.877 71.84 288.322 71.84C288.557 71.84 288.756 71.7931 288.92 71.6993C289.529 71.84 290.127 71.9572 290.713 72.0509C291.322 72.1447 291.932 72.215 292.541 72.2618C292.846 72.3087 293.15 72.3322 293.455 72.3322C293.783 72.3322 294.088 72.3673 294.369 72.4376C294.627 72.5079 294.885 72.6017 295.143 72.7189C295.4 72.8126 295.658 72.9181 295.916 73.0353C296.455 73.2697 296.959 73.5275 297.428 73.8087C297.92 74.09 298.354 74.4298 298.729 74.8282C299.104 75.2032 299.396 75.6486 299.607 76.1642C299.818 76.6564 299.924 77.2306 299.924 77.8868Z" fill="black"/>
</svg>
