<svg width="322" height="313" viewBox="0 0 322 313" fill="none" xmlns="http://www.w3.org/2000/svg">
<path d="M153.904 58.2819L137.041 53.6008L133.283 11.4537H174.574L170.812 53.5942L153.904 58.2819Z" fill="#264DE4"/>
<path d="M167.592 50.9108L170.807 14.8998H153.929V54.6988L167.592 50.9108Z" fill="#2965F1"/>
<path d="M141.898 30.5316L142.361 35.7007H153.929V30.5316H141.898Z" fill="#EBEBEB"/>
<path d="M140.967 20.0692L141.437 25.2384H153.929V20.0692H140.967Z" fill="#EBEBEB"/>
<path d="M153.929 43.9566L153.906 43.9626L148.149 42.4081L147.781 38.2855H142.592L143.316 46.4018L153.905 49.3413L153.929 49.3347V43.9566Z" fill="#EBEBEB"/>
<path d="M143.001 0H149.262V2.61813H145.619V5.23627H149.262V7.8544H143.001V0Z" fill="black"/>
<path d="M150.514 0H156.775V2.27664H153.132V2.73197H156.775V7.96823H150.514V5.57776H154.156V5.12244H150.514V0Z" fill="black"/>
<path d="M158.027 0H164.287V2.27664H160.645V2.73197H164.287V7.96823H158.027V5.57776H161.669V5.12244H158.027V0Z" fill="black"/>
<path d="M165.927 30.5317L166.86 20.0692H153.911V25.2384H161.195L160.724 30.5317H153.911V35.7008H160.276L159.676 42.4048L153.911 43.9609V49.3387L164.508 46.4018L164.586 45.5285L165.8 31.9197L165.927 30.5317Z" fill="white"/>
<path d="M101.882 11.4797L98.1114 53.7155L81.1642 58.4139L64.2636 53.7222L60.4974 11.4797H101.882Z" fill="#E44D26"/>
<path d="M81.1896 54.8227L94.8837 51.0261L98.1056 14.9337H81.1896V54.8227Z" fill="#F16529"/>
<path d="M73.8604 25.2955H81.1895V20.1145H68.1984L68.3224 21.5045L69.5957 35.7815H81.1895V30.6007H74.3339L73.8604 25.2955Z" fill="#EBEBEB"/>
<path d="M75.028 38.3721H69.8273L70.5531 46.5068L81.1657 49.4529L81.1896 49.4463V44.056L81.1669 44.0621L75.3969 42.5041L75.028 38.3721Z" fill="#EBEBEB"/>
<path d="M64.3478 0H66.9806V2.60124H69.3891V0H72.022V7.8772H69.3892V5.23945H66.9807V7.8772H64.3479L64.3478 0Z" fill="black"/>
<path d="M75.4843 2.61219H73.1665V0H80.4363V2.61219H78.1174V7.8772H75.4845L75.4843 2.61219Z" fill="black"/>
<path d="M81.5901 0H84.3354L86.0242 2.76781L87.7112 0H90.4576V7.8772H87.8356V3.97283L86.0242 6.77361H85.9789L84.1662 3.97283V7.8772H81.5901V0Z" fill="black"/>
<path d="M91.7679 0H94.4016V5.27345H98.1041V7.8772H91.7679V0Z" fill="black"/>
<path d="M81.1716 35.7816H87.5513L86.9499 42.5008L81.1716 44.0604V49.4504L91.7927 46.5068L91.8706 45.6315L93.0881 31.992L93.2145 30.6008H81.1716V35.7816Z" fill="white"/>
<path d="M81.1716 25.2828V25.2955H93.6859L93.7898 24.1309L94.0259 21.5045L94.1498 20.1145H81.1716V25.2828Z" fill="white"/>
<g clip-path="url(#clip0_21_21)">
<path d="M203.234 1.89055H258.16V56.817H203.234V1.89055Z" fill="#F7DF1E"/>
<path d="M217.676 47.7911L221.879 45.2473C222.69 46.6851 223.428 47.9016 225.197 47.9016C226.893 47.9016 227.963 47.2381 227.963 44.6574V27.1071H233.124V44.7304C233.124 50.0766 229.99 52.51 225.418 52.51C221.289 52.51 218.892 50.3714 217.676 47.7907" fill="black"/>
<path d="M235.928 47.238L240.131 44.8046C241.237 46.6114 242.675 47.9386 245.219 47.9386C247.358 47.9386 248.721 46.8693 248.721 45.3945C248.721 43.6247 247.32 42.9979 244.961 41.9658L243.671 41.4124C239.947 39.8273 237.476 37.8363 237.476 33.6331C237.476 29.7617 240.426 26.812 245.035 26.812C248.316 26.812 250.676 27.9551 252.372 30.9416L248.353 33.5223C247.468 31.9371 246.509 31.3104 245.035 31.3104C243.523 31.3104 242.564 32.269 242.564 33.5223C242.564 35.0709 243.523 35.6979 245.735 36.6565L247.025 37.2096C251.413 39.09 253.883 41.0071 253.883 45.3207C253.883 49.9666 250.233 52.5104 245.33 52.5104C240.537 52.5104 237.439 50.2246 235.928 47.238Z" fill="black"/>
</g>
<g clip-path="url(#clip1_21_21)">
<mask id="mask0_21_21" style="mask-type:luminance" maskUnits="userSpaceOnUse" x="261" y="133" width="58" height="57">
<path d="M290.198 190C305.86 190 318.557 177.303 318.557 161.642C318.557 145.98 305.86 133.283 290.198 133.283C274.537 133.283 261.84 145.98 261.84 161.642C261.84 177.303 274.537 190 290.198 190Z" fill="white"/>
</mask>
<g mask="url(#mask0_21_21)">
<path d="M290.198 190C305.86 190 318.557 177.303 318.557 161.642C318.557 145.98 305.86 133.283 290.198 133.283C274.537 133.283 261.84 145.98 261.84 161.642C261.84 177.303 274.537 190 290.198 190Z" fill="black"/>
<path d="M308.949 182.916L283.626 150.298H278.855V172.975H282.672V155.146L305.953 185.225C307.003 184.522 308.004 183.75 308.949 182.916Z" fill="url(#paint0_linear_21_21)"/>
<path d="M301.857 150.298H298.076V172.985H301.857V150.298Z" fill="url(#paint1_linear_21_21)"/>
</g>
</g>
<path d="M311.304 79.7364C310.68 79.5216 310.033 79.3184 309.367 79.1261C309.476 78.6795 309.577 78.2386 309.666 77.8053C311.132 70.6893 310.174 64.9566 306.901 63.0691C303.762 61.2593 298.63 63.1463 293.446 67.6575C292.948 68.0913 292.448 68.5506 291.948 69.0319C291.615 68.7135 291.283 68.4057 290.951 68.1113C285.518 63.2877 280.073 61.2549 276.803 63.1478C273.668 64.9629 272.739 70.3522 274.059 77.0961C274.186 77.7474 274.335 78.4127 274.504 79.089C273.733 79.3078 272.989 79.541 272.277 79.7891C265.908 82.0097 261.84 85.4899 261.84 89.0998C261.84 92.8281 266.207 96.5677 272.841 98.8351C273.365 99.0141 273.908 99.1833 274.468 99.3439C274.286 100.075 274.128 100.792 273.995 101.491C272.737 108.118 273.72 113.38 276.847 115.184C280.077 117.046 285.497 115.132 290.776 110.518C291.193 110.153 291.612 109.766 292.031 109.361C292.575 109.884 293.118 110.38 293.657 110.845C298.77 115.244 303.82 117.021 306.944 115.212C310.171 113.344 311.22 107.692 309.858 100.814C309.754 100.289 309.633 99.7526 309.497 99.2065C309.878 99.094 310.252 98.9778 310.616 98.857C317.513 96.5719 322 92.8779 322 89.0998C322 85.4768 317.801 81.9732 311.304 79.7364ZM309.808 96.4175C309.479 96.5264 309.141 96.6317 308.797 96.7337C308.036 94.3234 307.008 91.7604 305.751 89.1123C306.951 86.5273 307.939 83.997 308.679 81.6023C309.294 81.7804 309.892 81.9682 310.467 82.1665C316.034 84.0829 319.43 86.9165 319.43 89.0998C319.43 91.4254 315.763 94.4444 309.808 96.4175ZM307.337 101.314C307.939 104.355 308.025 107.104 307.626 109.253C307.268 111.185 306.547 112.473 305.656 112.988C303.76 114.086 299.706 112.659 295.334 108.896C294.832 108.465 294.327 108.005 293.821 107.517C295.516 105.663 297.21 103.508 298.864 101.114C301.772 100.856 304.52 100.434 307.011 99.8583C307.134 100.353 307.243 100.839 307.337 101.314ZM282.35 112.799C280.498 113.453 279.022 113.472 278.131 112.957C276.233 111.863 275.444 107.638 276.52 101.971C276.644 101.322 276.79 100.655 276.959 99.9734C279.424 100.518 282.151 100.911 285.066 101.147C286.731 103.489 288.474 105.642 290.231 107.527C289.847 107.898 289.465 108.25 289.085 108.583C286.75 110.623 284.411 112.071 282.35 112.799ZM273.672 96.4033C270.739 95.4007 268.316 94.0976 266.656 92.6756C265.164 91.3978 264.41 90.1292 264.41 89.0998C264.41 86.9092 267.676 84.115 273.123 82.2159C273.784 81.9855 274.476 81.7683 275.194 81.5643C275.947 84.0131 276.934 86.5734 278.126 89.1623C276.919 91.7897 275.917 94.3908 275.157 96.8682C274.645 96.7211 274.149 96.5663 273.672 96.4033ZM276.581 76.6025C275.451 70.8245 276.201 66.4658 278.091 65.372C280.103 64.2069 284.554 65.8682 289.245 70.0332C289.545 70.2994 289.846 70.578 290.147 70.8663C288.399 72.7431 286.672 74.8799 285.022 77.2083C282.193 77.4705 279.485 77.8918 276.995 78.4559C276.838 77.8262 276.699 77.2074 276.581 76.6025ZM302.531 83.0103C301.936 81.9821 301.325 80.9782 300.702 80.0017C302.621 80.2443 304.46 80.5664 306.187 80.9606C305.669 82.6223 305.023 84.3597 304.262 86.1409C303.716 85.1048 303.139 84.0602 302.531 83.0103ZM291.949 72.703C293.134 73.9872 294.321 75.4211 295.489 76.9768C294.312 76.9212 293.121 76.8923 291.92 76.8923C290.73 76.8923 289.548 76.9206 288.379 76.9752C289.547 75.4339 290.745 74.002 291.949 72.703ZM281.299 83.028C280.704 84.0592 280.138 85.0981 279.6 86.1389C278.852 84.364 278.212 82.6187 277.689 80.9334C279.405 80.5493 281.236 80.2352 283.143 79.9972C282.511 80.9826 281.895 81.9942 281.299 83.028ZM283.198 98.3857C281.227 98.1659 279.369 97.868 277.653 97.4945C278.185 95.7791 278.839 93.9965 279.603 92.1833C280.142 93.2234 280.711 94.2628 281.309 95.2962C281.918 96.3489 282.55 97.3801 283.198 98.3857ZM292.02 105.678C290.802 104.364 289.587 102.91 288.4 101.346C289.552 101.391 290.727 101.414 291.92 101.414C293.146 101.414 294.359 101.387 295.552 101.334C294.38 102.926 293.197 104.382 292.02 105.678ZM304.286 92.0909C305.091 93.9237 305.768 95.697 306.307 97.3831C304.562 97.781 302.679 98.1015 300.695 98.3397C301.319 97.35 301.936 96.3289 302.542 95.2785C303.154 94.2158 303.736 93.1515 304.286 92.0909ZM300.315 93.9946C299.375 95.6251 298.41 97.1817 297.429 98.651C295.644 98.7786 293.8 98.8444 291.92 98.8444C290.048 98.8444 288.227 98.7862 286.473 98.6724C285.454 97.1838 284.467 95.6227 283.533 94.0086C282.601 92.3989 281.743 90.7756 280.966 89.1615C281.743 87.5435 282.599 85.9184 283.525 84.3117L283.525 84.312C284.454 82.7009 285.432 81.1473 286.442 79.6681C288.231 79.5328 290.066 79.4623 291.92 79.4623C293.783 79.4623 295.62 79.5334 297.408 79.6698C298.403 81.1382 299.374 82.6868 300.307 84.2981C301.25 85.9274 302.117 87.5417 302.9 89.1249C302.119 90.7354 301.254 92.3659 300.315 93.9946ZM305.617 65.2956C307.632 66.4573 308.415 71.1427 307.149 77.2866C307.068 77.6786 306.978 78.0779 306.879 78.4826C304.383 77.9067 301.673 77.4781 298.835 77.2119C297.182 74.8579 295.469 72.7179 293.75 70.8651C294.212 70.4204 294.673 69.9963 295.133 69.5962C299.575 65.731 303.726 64.2049 305.617 65.2956ZM291.92 83.7277C294.887 83.7277 297.292 86.1328 297.292 89.0998C297.292 92.0666 294.887 94.4718 291.92 94.4718C288.953 94.4718 286.548 92.0666 286.548 89.0998C286.548 86.1328 288.953 83.7277 291.92 83.7277Z" fill="#00D8FF"/>
<path d="M166.841 268.457C158.9 268.457 153.938 272.448 151.952 280.431C154.93 276.44 158.404 274.943 162.374 275.941C164.639 276.51 166.258 278.162 168.05 279.991C170.97 282.97 174.349 286.417 181.729 286.417C189.669 286.417 194.632 282.426 196.617 274.444C193.639 278.435 190.165 279.932 186.195 278.934C183.93 278.365 182.311 276.713 180.519 274.884C177.599 271.905 174.22 268.457 166.841 268.457ZM151.952 286.417C144.012 286.417 139.05 290.409 137.064 298.391C140.042 294.4 143.516 292.903 147.486 293.901C149.751 294.47 151.37 296.122 153.162 297.951C156.082 300.93 159.461 304.378 166.841 304.378C174.781 304.378 179.743 300.386 181.729 292.404C178.751 296.395 175.277 297.892 171.307 296.894C169.042 296.325 167.423 294.673 165.631 292.844C162.711 289.865 159.332 286.417 151.952 286.417Z" fill="url(#paint2_linear_21_21)"/>
<path d="M72.5454 264.676C69.2357 264.676 66.7866 267.573 66.8963 270.715C67.0015 273.733 66.8648 277.642 65.8807 280.83C64.8936 284.027 63.2242 286.052 60.4974 286.312V289.248C63.2242 289.508 64.8936 291.533 65.8807 294.731C66.8648 297.918 67.0015 301.827 66.8963 304.846C66.7866 307.987 69.2357 310.884 72.5459 310.884H106.46C109.769 310.884 112.218 307.987 112.108 304.846C112.003 301.827 112.14 297.918 113.124 294.731C114.111 291.533 115.776 289.508 118.503 289.248V286.312C115.776 286.052 114.111 284.027 113.124 280.83C112.14 277.642 112.003 273.733 112.108 270.715C112.218 267.574 109.769 264.676 106.46 264.676H72.5449H72.5454ZM99.8234 293.12C99.8234 297.446 96.5967 300.07 91.242 300.07H82.1267C81.5837 300.07 81.1436 299.629 81.1436 299.086V276.474C81.1436 275.931 81.5837 275.491 82.1267 275.491H91.1899C95.6548 275.491 98.5851 277.909 98.5851 281.623C98.5851 284.229 96.6139 286.563 94.1024 286.971V287.107C97.5213 287.482 99.8234 289.85 99.8234 293.12ZM90.248 278.607H85.0506V285.949H89.4281C92.812 285.949 94.6781 284.586 94.6781 282.15C94.6781 279.868 93.0736 278.607 90.248 278.607ZM85.0506 288.862V296.952H90.4392C93.9623 296.952 95.8288 295.538 95.8288 292.881C95.8288 290.224 93.9102 288.861 90.2126 288.861H85.0506V288.862Z" fill="#7E13F8"/>
<g clip-path="url(#clip2_21_21)">
<path d="M230.204 312.628C234.655 312.628 238.268 309.047 238.268 304.636V296.644H230.204C225.752 296.644 222.139 300.224 222.139 304.636C222.139 309.047 225.752 312.628 230.204 312.628Z" fill="#0ACF83"/>
<path d="M222.139 288.652C222.139 284.24 225.752 280.66 230.204 280.66H238.268V296.644H230.204C225.752 296.644 222.139 293.064 222.139 288.652Z" fill="#A259FF"/>
<path d="M222.139 272.668C222.139 268.257 225.752 264.676 230.204 264.676H238.268V280.66H230.204C225.752 280.66 222.139 277.08 222.139 272.668Z" fill="#F24E1E"/>
<path d="M238.268 264.676H246.333C250.784 264.676 254.397 268.257 254.397 272.668C254.397 277.08 250.784 280.66 246.333 280.66H238.268V264.676Z" fill="#FF7262"/>
<path d="M254.397 288.652C254.397 293.064 250.784 296.644 246.333 296.644C241.881 296.644 238.268 293.064 238.268 288.652C238.268 284.24 241.881 280.66 246.333 280.66C250.784 280.66 254.397 284.24 254.397 288.652Z" fill="#1ABCFE"/>
</g>
<path d="M53.7917 162.98L29.8539 139.044C28.4764 137.665 26.2404 137.665 24.861 139.044L19.8903 144.014L26.1959 150.32C27.6613 149.825 29.3414 150.157 30.5096 151.325C31.6833 152.501 32.0129 154.195 31.5058 155.665L37.5827 161.742C39.053 161.236 40.7493 161.564 41.9236 162.74C43.5646 164.38 43.5646 167.039 41.9236 168.681C40.2819 170.322 37.6231 170.322 35.9808 168.681C34.7464 167.445 34.4414 165.632 35.0664 164.111L29.3992 158.444L29.3986 173.358C29.7986 173.556 30.1764 173.82 30.5096 174.153C32.1507 175.793 32.1507 178.452 30.5096 180.095C28.868 181.736 26.2079 181.736 24.5687 180.095C22.9276 178.452 22.9276 175.793 24.5687 174.153C24.9741 173.748 25.4433 173.441 25.9438 173.236V158.183C25.4433 157.978 24.9747 157.674 24.5687 157.266C23.3252 156.025 23.0263 154.2 23.6633 152.673L17.448 146.457L1.03453 162.869C-0.344843 164.249 -0.344843 166.485 1.03453 167.864L24.9723 191.8C26.3505 193.179 28.5859 193.179 29.9658 191.8L53.7917 167.975C55.1705 166.596 55.1705 164.359 53.7917 162.98Z" fill="#DE4C36"/>
<path d="M54.5001 239.006C54.1887 238.063 53.3732 237.406 52.3183 237.249C51.821 237.174 51.2514 237.206 50.5774 237.345C49.4027 237.587 48.5311 237.68 47.8951 237.698C50.2959 233.644 52.2482 229.021 53.3721 224.67C55.1894 217.634 54.2183 214.428 53.0834 212.978C50.0801 209.141 45.6983 207.079 40.4119 207.016C37.592 206.982 35.1163 207.538 33.825 207.939C32.6225 207.727 31.3295 207.608 29.9729 207.586C27.4302 207.546 25.1833 208.1 23.2635 209.239C22.2004 208.88 20.4948 208.373 18.5248 208.05C13.8916 207.289 10.1575 207.882 7.42616 209.812C4.11874 212.148 2.58543 216.207 2.86904 221.876C2.95898 223.676 3.96596 229.153 5.55131 234.347C6.46247 237.332 7.43407 239.811 8.43913 241.715C9.86439 244.416 11.3894 246.007 13.1015 246.578C14.0613 246.898 15.8048 247.121 17.6387 245.594C17.8712 245.876 18.1812 246.155 18.5928 246.415C19.1155 246.745 19.7546 247.014 20.3929 247.174C22.6933 247.749 24.848 247.605 26.6863 246.799C26.6976 247.126 26.7063 247.438 26.7138 247.708C26.726 248.146 26.738 248.575 26.7541 248.976C26.863 251.689 27.0475 253.798 27.5944 255.274C27.6243 255.355 27.6647 255.479 27.7074 255.61C27.9801 256.445 28.4364 257.843 29.5969 258.939C30.7989 260.073 32.2526 260.421 33.5839 260.421C34.2516 260.421 34.8888 260.333 35.4475 260.213C37.4395 259.787 39.7017 259.136 41.3381 256.806C42.8852 254.603 43.6374 251.286 43.7735 246.058C43.7911 245.91 43.8074 245.769 43.8231 245.634C43.8337 245.543 43.8445 245.451 43.8554 245.358L44.22 245.39L44.3139 245.396C46.3427 245.489 48.8234 245.059 50.3468 244.351C51.5507 243.792 55.4083 241.756 54.5001 239.006Z" fill="black"/>
<path d="M51.0311 239.541C44.9988 240.785 44.5842 238.743 44.5842 238.743C50.9533 229.292 53.6158 217.296 51.3181 214.36C45.0498 206.351 34.1991 210.139 34.018 210.237L33.9598 210.247C32.768 210 31.4342 209.853 29.9352 209.828C27.2057 209.783 25.1353 210.544 23.5642 211.735C23.5642 211.735 4.2076 203.761 5.10785 221.764C5.29936 225.594 10.5974 250.744 16.9166 243.147C19.2263 240.37 21.4579 238.021 21.4579 238.021C22.5663 238.757 23.8932 239.133 25.2843 238.998L25.3924 238.906C25.3588 239.251 25.3741 239.589 25.4357 239.988C23.8077 241.807 24.2861 242.126 21.0318 242.796C17.7389 243.475 19.6733 244.683 20.9363 244.999C22.4675 245.381 26.0098 245.924 28.4033 242.573L28.3079 242.956C28.9457 243.466 29.3936 246.279 29.3186 248.828C29.2435 251.377 29.1934 253.128 29.696 254.495C30.1986 255.862 30.6995 258.938 34.9775 258.021C38.5523 257.255 40.4047 255.27 40.6624 251.959C40.8453 249.604 41.2591 249.952 41.2853 247.848L41.6172 246.851C42 243.66 41.678 242.63 43.8803 243.109L44.4156 243.156C46.0365 243.23 48.158 242.896 49.4032 242.317C52.0844 241.073 53.6745 238.995 51.0309 239.541H51.0311Z" fill="#336791"/>
<path d="M24.6971 223.477C24.1537 223.401 23.6613 223.471 23.4122 223.66C23.272 223.766 23.2287 223.889 23.2171 223.973C23.1858 224.198 23.3429 224.445 23.4393 224.573C23.7122 224.935 24.1111 225.184 24.5059 225.238C24.5631 225.246 24.6199 225.25 24.6765 225.25C25.3349 225.25 25.9333 224.738 25.986 224.359C26.052 223.885 25.3641 223.57 24.6971 223.477Z" fill="white"/>
<path d="M42.7057 223.492C42.6539 223.12 41.9927 223.015 41.3656 223.102C40.7393 223.189 40.1319 223.472 40.1827 223.844C40.2234 224.133 40.7459 224.628 41.3647 224.627C41.4169 224.627 41.4697 224.624 41.5228 224.617C41.9358 224.559 42.2388 224.297 42.3827 224.146C42.6021 223.916 42.7288 223.659 42.7057 223.492Z" fill="white"/>
<path d="M53.0385 239.4C52.8085 238.704 52.0682 238.48 50.8382 238.734C47.1861 239.488 45.8783 238.966 45.4487 238.65C48.2875 234.325 50.6227 229.098 51.8825 224.22C52.4793 221.91 52.809 219.765 52.8358 218.016C52.8656 216.096 52.5388 214.686 51.8645 213.824C49.146 210.351 45.1563 208.487 40.3268 208.436C37.0066 208.399 34.2014 209.249 33.6576 209.488C32.5124 209.203 31.2639 209.028 29.9048 209.006C27.4122 208.965 25.2579 209.562 23.474 210.778C22.6992 210.49 20.6968 209.803 18.2481 209.408C14.0144 208.726 10.6503 209.243 8.24946 210.944C5.38479 212.973 4.0623 216.601 4.31857 221.726C4.4048 223.451 5.38719 228.755 6.93777 233.835C8.9787 240.522 11.1971 244.307 13.5315 245.085C13.8047 245.176 14.1198 245.24 14.4671 245.24C15.3187 245.24 16.3626 244.856 17.4488 243.551C19.2531 241.38 20.9376 239.561 21.5585 238.9C22.4762 239.393 23.4841 239.668 24.5153 239.695C24.5171 239.722 24.5199 239.749 24.5223 239.776C24.3154 240.022 24.1457 240.237 24.0011 240.42C23.2867 241.327 23.138 241.516 20.8384 241.989C20.1844 242.124 18.4468 242.482 18.4215 243.7C18.3938 245.031 20.475 245.59 20.7123 245.649C21.5386 245.856 22.3347 245.958 23.0939 245.958C24.9404 245.958 26.5652 245.351 27.8639 244.177C27.8238 248.92 28.0217 253.594 28.5912 255.018C29.0576 256.184 30.1972 259.034 33.7968 259.033C34.3248 259.033 34.9063 258.972 35.5459 258.835C39.3025 258.029 40.9338 256.369 41.565 252.709C41.9027 250.752 42.4822 246.081 42.7547 243.575C43.33 243.754 44.0706 243.836 44.8712 243.836C46.541 243.836 48.4676 243.482 49.6759 242.921C51.0332 242.29 53.4827 240.743 53.0385 239.4ZM44.0923 222.467C44.0798 223.207 43.978 223.878 43.8701 224.579C43.754 225.333 43.6338 226.113 43.6036 227.059C43.5737 227.98 43.6888 228.937 43.8 229.863C44.0248 231.733 44.2554 233.658 43.3626 235.558C43.2238 235.312 43.0899 235.043 42.9671 234.745C42.8561 234.476 42.6152 234.044 42.2817 233.446C40.9837 231.118 37.9442 225.667 39.5002 223.443C39.9635 222.781 41.1397 222.1 44.0923 222.467ZM40.5135 209.934C44.8407 210.03 48.2636 211.649 50.6872 214.746C52.546 217.121 50.4992 227.929 44.5738 237.254C44.5153 237.18 44.4557 237.104 44.394 237.027C44.3694 236.997 44.3444 236.965 44.3191 236.934C45.8502 234.405 45.5508 231.903 45.2843 229.685C45.1748 228.774 45.0714 227.915 45.0977 227.107C45.1249 226.251 45.2381 225.517 45.3475 224.807C45.4822 223.932 45.619 223.027 45.5812 221.96C45.6094 221.848 45.6208 221.715 45.6061 221.558C45.5096 220.535 44.3414 217.473 41.96 214.7C40.6575 213.184 38.7578 211.488 36.1642 210.343C37.2798 210.112 38.8055 209.896 40.5135 209.934ZM16.2994 242.595C15.1027 244.034 14.2762 243.758 14.0045 243.667C12.2336 243.077 10.179 239.334 8.36747 233.399C6.79998 228.264 5.8839 223.1 5.81147 221.652C5.58254 217.072 6.69265 213.88 9.1111 212.165C13.0469 209.374 19.5178 211.045 22.118 211.892C22.0806 211.929 22.0417 211.963 22.0046 212.001C17.738 216.31 17.8392 223.672 17.8496 224.122C17.8493 224.296 17.8638 224.542 17.8838 224.88C17.9572 226.118 18.0938 228.423 17.7289 231.033C17.3896 233.458 18.1372 235.832 19.7796 237.545C19.9497 237.723 20.1272 237.889 20.3105 238.046C19.5794 238.829 17.9905 240.56 16.2994 242.595ZM20.8589 236.511C19.5351 235.13 18.9339 233.209 19.2093 231.24C19.5947 228.482 19.4524 226.081 19.376 224.791C19.3653 224.611 19.3558 224.453 19.3502 224.328C19.9735 223.775 22.8621 222.227 24.922 222.699C25.8621 222.915 26.4348 223.555 26.6729 224.656C27.9055 230.356 26.8361 232.732 25.9769 234.641C25.7998 235.034 25.6325 235.406 25.4895 235.791L25.3789 236.088C25.0985 236.84 24.8377 237.539 24.676 238.203C23.2688 238.198 21.8998 237.597 20.8589 236.511ZM21.0749 244.199C20.664 244.096 20.2944 243.918 20.0776 243.77C20.2587 243.685 20.5811 243.569 21.14 243.454C23.8453 242.897 24.263 242.504 25.1754 241.345C25.3846 241.08 25.6217 240.778 25.95 240.412L25.9504 240.411C26.4396 239.864 26.6632 239.957 27.0689 240.125C27.3977 240.261 27.7179 240.673 27.8478 241.126C27.9092 241.341 27.9783 241.747 27.7525 242.064C25.8465 244.732 23.0694 244.698 21.0749 244.199ZM35.2325 257.373C31.9231 258.082 30.7513 256.394 29.9791 254.463C29.4808 253.217 29.2359 247.597 29.4096 241.391C29.4119 241.309 29.4002 241.229 29.3774 241.154C29.3576 241.009 29.3271 240.863 29.2849 240.715C29.0264 239.812 28.3967 239.057 27.6412 238.744C27.341 238.619 26.79 238.391 26.1279 238.561C26.2692 237.979 26.514 237.322 26.7794 236.611L26.8908 236.311C27.0163 235.974 27.1735 235.624 27.3399 235.255C28.2391 233.257 29.4706 230.521 28.134 224.34C27.6334 222.025 25.9617 220.894 23.4274 221.157C21.908 221.314 20.5181 221.927 19.8248 222.279C19.6758 222.354 19.5394 222.427 19.4121 222.498C19.6055 220.165 20.3367 215.806 23.0713 213.048C24.793 211.312 27.0862 210.454 29.8801 210.5C35.3851 210.591 38.9152 213.416 40.9074 215.77C42.6241 217.798 43.5537 219.842 43.9248 220.944C41.1348 220.66 39.2373 221.211 38.2753 222.586C36.1827 225.578 39.4202 231.384 40.9761 234.174C41.2614 234.686 41.5078 235.127 41.5852 235.315C42.0919 236.543 42.7479 237.363 43.2268 237.962C43.3736 238.145 43.5161 238.323 43.6244 238.478C42.7794 238.722 41.2616 239.284 41.3998 242.098C41.2883 243.51 40.4949 250.119 40.092 252.455C39.56 255.54 38.4247 256.689 35.2325 257.373ZM49.0465 241.565C48.1824 241.966 46.7364 242.267 45.3627 242.331C43.8455 242.403 43.0732 242.162 42.8915 242.013C42.8061 240.26 43.4589 240.077 44.1495 239.883C44.258 239.852 44.3639 239.823 44.4661 239.787C44.5296 239.839 44.5992 239.89 44.6753 239.94C45.8948 240.745 48.07 240.832 51.1405 240.198C51.1518 240.196 51.1631 240.194 51.1742 240.191C50.7601 240.579 50.0514 241.098 49.0465 241.565Z" fill="white"/>
<path d="M288.117 207.015C274.679 207.015 275.518 212.842 275.518 212.842L275.533 218.88H288.357V220.692H270.439C270.439 220.692 261.84 219.717 261.84 233.276C261.84 246.836 269.346 246.355 269.346 246.355H273.825V240.063C273.825 240.063 273.584 232.557 281.211 232.557H293.93C293.93 232.557 301.076 232.673 301.076 225.651V214.041C301.076 214.041 302.161 207.015 288.117 207.015ZM281.046 211.074C282.322 211.074 283.353 212.106 283.353 213.382C283.353 214.657 282.322 215.689 281.046 215.689C279.77 215.689 278.739 214.657 278.739 213.382C278.739 212.106 279.77 211.074 281.046 211.074Z" fill="url(#paint3_linear_21_21)"/>
<path d="M288.499 259.674C301.937 259.674 301.098 253.846 301.098 253.846L301.083 247.809H288.259V245.996H306.176C306.176 245.996 314.776 246.972 314.776 233.412C314.776 219.853 307.27 220.334 307.27 220.334H302.791V226.626C302.791 226.626 303.032 234.131 295.405 234.131H282.686C282.686 234.131 275.54 234.016 275.54 241.038V252.648C275.54 252.648 274.455 259.674 288.499 259.674ZM295.57 255.614C294.294 255.614 293.263 254.583 293.263 253.307C293.263 252.031 294.294 251 295.57 251C296.846 251 297.877 252.031 297.877 253.307C297.877 254.583 296.846 255.614 295.57 255.614Z" fill="url(#paint4_linear_21_21)"/>
<path d="M28.3584 62.388C12.6985 62.388 0 75.0842 0 90.7464C0 103.276 8.12554 113.906 19.3932 117.656C20.8105 117.918 21.3308 117.04 21.3308 116.291C21.3308 115.615 21.3045 113.381 21.2923 111.012C13.4029 112.727 11.7382 107.666 11.7382 107.666C10.4482 104.388 8.58951 103.516 8.58951 103.516C6.01656 101.756 8.78346 101.792 8.78346 101.792C11.6311 101.992 13.1306 104.715 13.1306 104.715C15.6599 109.05 19.7647 107.797 21.3829 107.072C21.6374 105.239 22.3724 103.988 23.1834 103.28C16.8846 102.563 10.2632 100.131 10.2632 89.2652C10.2632 86.1691 11.371 83.6394 13.1851 81.6534C12.8906 80.9392 11.9199 78.0549 13.4598 74.1487C13.4598 74.1487 15.8411 73.3865 21.2603 77.0556C23.5224 76.4272 25.9484 76.1121 28.3584 76.1013C30.7684 76.1121 33.1963 76.4272 35.4626 77.0556C40.8752 73.3865 43.2533 74.1487 43.2533 74.1487C44.7969 78.0549 43.8257 80.9392 43.5313 81.6534C45.3496 83.6394 46.4499 86.1691 46.4499 89.2652C46.4499 100.157 39.8158 102.555 33.501 103.258C34.5182 104.138 35.4245 105.863 35.4245 108.509C35.4245 112.304 35.3916 115.357 35.3916 116.291C35.3916 117.046 35.9021 117.93 37.3396 117.652C48.6011 113.898 56.7163 103.272 56.7163 90.7464C56.7163 75.0842 44.0197 62.388 28.3584 62.388ZM10.6211 102.785C10.5587 102.926 10.337 102.968 10.1351 102.872C9.92942 102.779 9.81389 102.587 9.88058 102.446C9.94163 102.3 10.1637 102.26 10.369 102.357C10.5751 102.45 10.6925 102.644 10.6211 102.785ZM12.0161 104.03C11.8808 104.155 11.6164 104.097 11.437 103.899C11.2515 103.701 11.2168 103.437 11.3539 103.309C11.4934 103.184 11.7498 103.243 11.9358 103.44C12.1213 103.64 12.1574 103.903 12.0161 104.03ZM12.973 105.622C12.7993 105.743 12.5152 105.63 12.3395 105.378C12.1658 105.125 12.1658 104.823 12.3433 104.702C12.5194 104.581 12.7993 104.69 12.9773 104.94C13.1505 105.196 13.1505 105.499 12.973 105.622ZM14.5915 107.467C14.436 107.638 14.105 107.592 13.8626 107.358C13.6147 107.129 13.5457 106.805 13.7016 106.634C13.8589 106.462 14.1918 106.51 14.436 106.742C14.6821 106.97 14.7572 107.297 14.5915 107.467ZM16.6831 108.089C16.6146 108.311 16.2957 108.412 15.9745 108.318C15.6538 108.221 15.4439 107.961 15.5087 107.736C15.5753 107.513 15.8956 107.407 16.2192 107.508C16.5394 107.605 16.7498 107.863 16.6831 108.089ZM19.0635 108.353C19.0715 108.587 18.7992 108.781 18.462 108.785C18.1229 108.793 17.8487 108.604 17.8449 108.374C17.8449 108.137 18.1112 107.945 18.4502 107.94C18.7874 107.933 19.0635 108.121 19.0635 108.353ZM21.402 108.264C21.4424 108.492 21.2081 108.726 20.8733 108.789C20.5441 108.849 20.2393 108.708 20.1975 108.482C20.1566 108.248 20.3952 108.013 20.7239 107.953C21.0592 107.895 21.3593 108.032 21.402 108.264Z" fill="#161614"/>
<defs>
<linearGradient id="paint0_linear_21_21" x1="1953.04" y1="2119.62" x2="2958.01" y2="3365.21" gradientUnits="userSpaceOnUse">
<stop stop-color="white"/>
<stop offset="1" stop-color="white" stop-opacity="0"/>
</linearGradient>
<linearGradient id="paint1_linear_21_21" x1="487.13" y1="150.298" x2="480.797" y2="1816.32" gradientUnits="userSpaceOnUse">
<stop stop-color="white"/>
<stop offset="1" stop-color="white" stop-opacity="0"/>
</linearGradient>
<linearGradient id="paint2_linear_21_21" x1="-28.3582" y1="1417.91" x2="5128.45" y2="4375.56" gradientUnits="userSpaceOnUse">
<stop stop-color="#2298BD"/>
<stop offset="1" stop-color="#0ED7B5"/>
</linearGradient>
<linearGradient id="paint3_linear_21_21" x1="770.558" y1="680.673" x2="3393.84" y2="3277.78" gradientUnits="userSpaceOnUse">
<stop stop-color="#387EB8"/>
<stop offset="1" stop-color="#366994"/>
</linearGradient>
<linearGradient id="paint4_linear_21_21" x1="1026.37" y1="1029.97" x2="3843.49" y2="3693.08" gradientUnits="userSpaceOnUse">
<stop stop-color="#FFE052"/>
<stop offset="1" stop-color="#FFC331"/>
</linearGradient>
<clipPath id="clip0_21_21">
<rect width="54.9265" height="54.9265" fill="white" transform="translate(203.234 1.89055)"/>
</clipPath>
<clipPath id="clip1_21_21">
<rect width="56.7163" height="56.7163" fill="white" transform="translate(261.84 133.283)"/>
</clipPath>
<clipPath id="clip2_21_21">
<rect width="32.2584" height="47.9517" fill="white" transform="translate(222.139 264.676)"/>
</clipPath>
</defs>
</svg>
